<?xml version="1.0" encoding="UTF-8" standalone="no"?>
<!-- Created with Inkscape (http://www.inkscape.org/) -->

<svg
   version="1.1"
   id="svg62"
   width="500"
   height="500"
   viewBox="0 0 500.00001 500.00001"
   sodipodi:docname="endeavour-pride.svg"
   inkscape:version="1.2.2 (b0a8486541, 2022-12-01)"
   xml:space="preserve"
   inkscape:export-filename="arch1024.png"
   inkscape:export-xdpi="196.608"
   inkscape:export-ydpi="196.608"
   xmlns:inkscape="http://www.inkscape.org/namespaces/inkscape"
   xmlns:sodipodi="http://sodipodi.sourceforge.net/DTD/sodipodi-0.dtd"
   xmlns="http://www.w3.org/2000/svg"
   xmlns:svg="http://www.w3.org/2000/svg"><defs
     id="defs66" /><sodipodi:namedview
     id="namedview64"
     pagecolor="#505050"
     bordercolor="#ffffff"
     borderopacity="1"
     inkscape:showpageshadow="0"
     inkscape:pageopacity="0"
     inkscape:pagecheckerboard="1"
     inkscape:deskcolor="#505050"
     showgrid="false"
     inkscape:zoom="1"
     inkscape:cx="202.5"
     inkscape:cy="302"
     inkscape:window-width="1408"
     inkscape:window-height="1011"
     inkscape:window-x="26"
     inkscape:window-y="23"
     inkscape:window-maximized="0"
     inkscape:current-layer="layer2" /><g
     inkscape:groupmode="layer"
     inkscape:label="Image"
     id="g68" /><g
     inkscape:groupmode="layer"
     id="layer2"
     inkscape:label="Layer 1"><g
       id="g3224"
       transform="scale(49.997609)"><rect
         style="fill:#e27f94;fill-opacity:1;stroke:#000000;stroke-width:0;stroke-dasharray:none;stroke-opacity:1"
         id="rect2618"
         width="9.999999"
         height="1.6666657"
         x="0.00047862483"
         y="5e-07" /><rect
         style="fill:#fcef9e;fill-opacity:1;stroke:#000000;stroke-width:0;stroke-dasharray:none;stroke-opacity:1"
         id="rect2618-6"
         width="9.999999"
         height="1.6666657"
         x="5e-07"
         y="3.3333337" /><rect
         style="fill:#8dcae7;fill-opacity:1;stroke:#000000;stroke-width:0;stroke-dasharray:none;stroke-opacity:1"
         id="rect2618-7"
         width="9.999999"
         height="1.6666657"
         x="5e-07"
         y="6.666667" /><rect
         style="fill:#f3b382;fill-opacity:1;stroke:#000000;stroke-width:0;stroke-dasharray:none;stroke-opacity:1"
         id="rect2618-3"
         width="9.999999"
         height="1.6666657"
         x="5e-07"
         y="1.6666665" /><rect
         style="fill:#b8eb9c;fill-opacity:1;stroke:#000000;stroke-width:0;stroke-dasharray:none;stroke-opacity:1"
         id="rect2618-3-5"
         width="9.999999"
         height="1.6666657"
         x="5e-07"
         y="5.0000005" /><rect
         style="fill:#b197cd;fill-opacity:1;stroke:#000000;stroke-width:0;stroke-dasharray:none;stroke-opacity:1"
         id="rect2618-3-3"
         width="9.999999"
         height="1.6666657"
         x="5e-07"
         y="8.333334" /></g><g
       transform="matrix(6.5949074,0,0,6.7318739,1115.7445,369.41202)"
       id="g720"
       style="display:inline"><path
         d="m -127,-42.3 c 4.57,6.45 23.8,31.4 10.7,36.6 -6.12,2.81 -34,-1.65 -33.6,-0.921 -2,3.28 -3.59,5.92 -3.59,5.92 0,0 21.5,0.967 38.1,-1.27 23.7,-3.18 -4.88,-33.5 -11.6,-40.3 z"
         style="display:inline;fill:#1e1f22;fill-opacity:0.5;stroke-width:0.585"
         inkscape:connector-curvature="0"
         id="path714" /><path
         d="m -127,-42.3 c -1.52,0.209 -29.4,34.5 -29.4,34.5 0,0 2.01,0.57 6.58,1.23 1.48,-1.15 22.3,-36.2 22.9,-35.7 -0.0107,-0.0141 -0.028,-0.0193 -0.0522,-0.016 z"
         style="display:inline;fill:#1e1f22;fill-opacity:0.5;stroke-width:0.585"
         inkscape:connector-curvature="0"
         id="path716" /><path
         d="m -127,-42.3 c -0.96,-0.156 -22.9,35.7 -22.9,35.7 0,0 19.9,2.1 28.1,1.96 23.1,-0.39 0.176,-30.6 -5.16,-37.7 -0.007,-0.007 -0.0151,-0.0108 -0.0248,-0.0124 z"
         style="display:inline;fill:#1e1f22;fill-opacity:1;stroke-width:0.585"
         inkscape:connector-curvature="0"
         id="path718" /></g></g></svg>
