<?xml version="1.0" encoding="UTF-8" standalone="no"?>
<!-- Created with Inkscape (http://www.inkscape.org/) -->

<svg
   version="1.1"
   id="svg62"
   width="500"
   height="500"
   viewBox="0 0 500.00001 500.00001"
   sodipodi:docname="endeavour-matte.svg"
   inkscape:version="1.2.2 (b0a8486541, 2022-12-01)"
   xml:space="preserve"
   inkscape:export-filename="endeavour-matte512.png"
   inkscape:export-xdpi="98.304001"
   inkscape:export-ydpi="98.304001"
   xmlns:inkscape="http://www.inkscape.org/namespaces/inkscape"
   xmlns:sodipodi="http://sodipodi.sourceforge.net/DTD/sodipodi-0.dtd"
   xmlns="http://www.w3.org/2000/svg"
   xmlns:svg="http://www.w3.org/2000/svg"><defs
     id="defs66" /><sodipodi:namedview
     id="namedview64"
     pagecolor="#505050"
     bordercolor="#ffffff"
     borderopacity="1"
     inkscape:showpageshadow="0"
     inkscape:pageopacity="0"
     inkscape:pagecheckerboard="1"
     inkscape:deskcolor="#505050"
     showgrid="false"
     inkscape:zoom="0.70710678"
     inkscape:cx="296.27774"
     inkscape:cy="186.67619"
     inkscape:window-width="1344"
     inkscape:window-height="1011"
     inkscape:window-x="26"
     inkscape:window-y="23"
     inkscape:window-maximized="0"
     inkscape:current-layer="layer2" /><g
     inkscape:groupmode="layer"
     id="layer4"
     inkscape:label="Layer 2"><rect
       style="fill:#ff7f7f;stroke-width:71.5448;fill-opacity:1"
       id="rect1039"
       width="500"
       height="150"
       x="0"
       y="0" /><rect
       style="fill:#7f7fff;stroke-width:71.5448;fill-opacity:1"
       id="rect1039-6"
       width="500"
       height="150"
       x="0"
       y="350" /><rect
       style="fill:#7f3fbf;stroke-width:82.6128;fill-opacity:1"
       id="rect1039-3"
       width="500"
       height="200"
       x="0"
       y="150" /></g><g
     inkscape:groupmode="layer"
     id="layer2"
     inkscape:label="Layer 1"><g
       transform="matrix(6.5949074,0,0,6.7318739,1115.7445,369.41202)"
       id="g720"
       style="display:inline"><path
         d="m -127,-42.3 c 4.57,6.45 23.8,31.4 10.7,36.6 -6.12,2.81 -34,-1.65 -33.6,-0.921 -2,3.28 -3.59,5.92 -3.59,5.92 0,0 21.5,0.967 38.1,-1.27 23.7,-3.18 -4.88,-33.5 -11.6,-40.3 z"
         style="display:inline;fill:#1e1f22;fill-opacity:0.5;stroke-width:0.585"
         inkscape:connector-curvature="0"
         id="path714" /><path
         d="m -127,-42.3 c -1.52,0.209 -29.4,34.5 -29.4,34.5 0,0 2.01,0.57 6.58,1.23 1.48,-1.15 22.3,-36.2 22.9,-35.7 -0.0107,-0.0141 -0.028,-0.0193 -0.0522,-0.016 z"
         style="display:inline;fill:#1e1f22;fill-opacity:0.5;stroke-width:0.585"
         inkscape:connector-curvature="0"
         id="path716" /><path
         d="m -127,-42.3 c -0.96,-0.156 -22.9,35.7 -22.9,35.7 0,0 19.9,2.1 28.1,1.96 23.1,-0.39 0.176,-30.6 -5.16,-37.7 -0.007,-0.007 -0.0151,-0.0108 -0.0248,-0.0124 z"
         style="display:inline;fill:#1e1f22;fill-opacity:1;stroke-width:0.585"
         inkscape:connector-curvature="0"
         id="path718" /></g></g></svg>
