<?xml version="1.0" encoding="UTF-8" standalone="no"?>
<!-- Created with Inkscape (http://www.inkscape.org/) -->

<svg
   version="1.1"
   id="svg62"
   width="500"
   height="500"
   viewBox="0 0 500.00001 500.00001"
   sodipodi:docname="fedora-matte.svg"
   inkscape:version="1.2.2 (b0a8486541, 2022-12-01)"
   xml:space="preserve"
   inkscape:export-filename="../fedora/fedora-matte1024.png"
   inkscape:export-xdpi="196.608"
   inkscape:export-ydpi="196.608"
   xmlns:inkscape="http://www.inkscape.org/namespaces/inkscape"
   xmlns:sodipodi="http://sodipodi.sourceforge.net/DTD/sodipodi-0.dtd"
   xmlns="http://www.w3.org/2000/svg"
   xmlns:svg="http://www.w3.org/2000/svg"><defs
     id="defs66" /><sodipodi:namedview
     id="namedview64"
     pagecolor="#505050"
     bordercolor="#ffffff"
     borderopacity="1"
     inkscape:showpageshadow="0"
     inkscape:pageopacity="0"
     inkscape:pagecheckerboard="1"
     inkscape:deskcolor="#505050"
     showgrid="false"
     inkscape:zoom="1"
     inkscape:cx="164.5"
     inkscape:cy="302"
     inkscape:window-width="1344"
     inkscape:window-height="1011"
     inkscape:window-x="26"
     inkscape:window-y="23"
     inkscape:window-maximized="0"
     inkscape:current-layer="layer5" /><g
     inkscape:groupmode="layer"
     id="layer5"
     inkscape:label="Layer 2"><rect
       style="fill:#4d9acf;stroke-width:84.5163;fill-opacity:1"
       id="rect2952"
       width="500"
       height="500"
       x="0"
       y="0" /></g><g
     inkscape:groupmode="layer"
     id="layer2"
     inkscape:label="Layer 1"><path
       fill="#ffffff"
       d="m 326.68626,75.431 c -42.54923,0 -80.13515,31.41093 -85.33853,72.62805 -0.34948,3.45027 -0.4501,5.93729 -0.47022,9.06522 l 0.05,168.51737 c 0,32.32626 -24.67206,54.32693 -55.49837,54.32693 -30.86878,0 -55.7376,-24.19218 -55.7376,-54.37894 0.50626,-33.13886 27.5502,-54.15638 59.09573,-55.07184 h 0.16869 l 32.02485,-0.28919 v -44.49395 l -32.02485,0.23718 C 131.53979,225.46557 85.965686,269.55939 84.301,325.61665 c 0,54.51205 45.66702,98.95198 101.11164,98.95198 52.30065,0 95.82583,-40.07081 100.579,-90.21342 0.68526,-17.06763 0.35149,-39.59198 0.35149,-39.59198 0.0958,-9.27449 -0.14695,-5.94406 -0.05,-24.35986 l 39.72523,-0.28921 c 30.73788,0.21319 30.39258,-45.19773 -0.3539,-44.57302 l -39.37982,0.28711 c 0,-22.85992 0.36678,-45.57851 0,-68.47305 0.0281,-19.80125 19.14997,-37.29919 40.36599,-37.29919 21.22137,0 43.66796,10.38953 43.66796,37.29919 0,3.84461 -0.0785,6.08253 -0.29551,7.50686 -2.36863,12.47969 6.32385,24.40689 19.13125,26.20744 12.80737,1.77975 24.56813,-7.29209 25.83709,-19.91566 0.73523,-4.99028 0.7074,-9.39299 0.7074,-13.79448 0,-47.45158 -43.24229,-81.849321 -89.04201,-81.849321 z"
       id="path4824"
       style="fill:#1e1f22;fill-opacity:1;stroke-width:4.02623" /></g><style
     type="text/css"
     id="style2961">
	.st0{fill:#FFFFFF;}
	.st1{fill:#69B53F;}
	.st2{fill:#F8F8F8;}
</style><style
     type="text/css"
     id="style4109">
	.st0{fill:#FFFFFF;}
	.st1{fill:#69B53F;}
	.st2{fill:#F8F8F8;}
</style></svg>
