<?xml version="1.0" encoding="UTF-8" standalone="no"?>
<!-- Created with Inkscape (http://www.inkscape.org/) -->

<svg
   version="1.1"
   id="svg62"
   width="500"
   height="500"
   viewBox="0 0 500.00001 500.00001"
   sodipodi:docname="arch-pride.svg"
   inkscape:version="1.2.2 (b0a8486541, 2022-12-01)"
   xml:space="preserve"
   inkscape:export-filename="../pride/arch/arch-pride.png"
   inkscape:export-xdpi="96"
   inkscape:export-ydpi="96"
   xmlns:inkscape="http://www.inkscape.org/namespaces/inkscape"
   xmlns:sodipodi="http://sodipodi.sourceforge.net/DTD/sodipodi-0.dtd"
   xmlns="http://www.w3.org/2000/svg"
   xmlns:svg="http://www.w3.org/2000/svg"><defs
     id="defs66" /><sodipodi:namedview
     id="namedview64"
     pagecolor="#505050"
     bordercolor="#ffffff"
     borderopacity="1"
     inkscape:showpageshadow="0"
     inkscape:pageopacity="0"
     inkscape:pagecheckerboard="1"
     inkscape:deskcolor="#505050"
     showgrid="false"
     inkscape:zoom="1"
     inkscape:cx="-83.5"
     inkscape:cy="302"
     inkscape:window-width="1920"
     inkscape:window-height="1011"
     inkscape:window-x="26"
     inkscape:window-y="23"
     inkscape:window-maximized="0"
     inkscape:current-layer="layer2" /><g
     inkscape:groupmode="layer"
     inkscape:label="Image"
     id="g68" /><g
     inkscape:groupmode="layer"
     id="layer2"
     inkscape:label="Layer 1"><g
       id="g3224"
       transform="scale(49.997609)"><rect
         style="fill:#e27f94;fill-opacity:1;stroke:#000000;stroke-width:0;stroke-dasharray:none;stroke-opacity:1"
         id="rect2618"
         width="9.999999"
         height="1.6666657"
         x="0.00047862483"
         y="5e-07" /><rect
         style="fill:#fcef9e;fill-opacity:1;stroke:#000000;stroke-width:0;stroke-dasharray:none;stroke-opacity:1"
         id="rect2618-6"
         width="9.999999"
         height="1.6666657"
         x="5e-07"
         y="3.3333337" /><rect
         style="fill:#8dcae7;fill-opacity:1;stroke:#000000;stroke-width:0;stroke-dasharray:none;stroke-opacity:1"
         id="rect2618-7"
         width="9.999999"
         height="1.6666657"
         x="5e-07"
         y="6.666667" /><rect
         style="fill:#f3b382;fill-opacity:1;stroke:#000000;stroke-width:0;stroke-dasharray:none;stroke-opacity:1"
         id="rect2618-3"
         width="9.999999"
         height="1.6666657"
         x="5e-07"
         y="1.6666665" /><rect
         style="fill:#b8eb9c;fill-opacity:1;stroke:#000000;stroke-width:0;stroke-dasharray:none;stroke-opacity:1"
         id="rect2618-3-5"
         width="9.999999"
         height="1.6666657"
         x="5e-07"
         y="5.0000005" /><rect
         style="fill:#b197cd;fill-opacity:1;stroke:#000000;stroke-width:0;stroke-dasharray:none;stroke-opacity:1"
         id="rect2618-3-3"
         width="9.999999"
         height="1.6666657"
         x="5e-07"
         y="8.333334" /></g><g
       inkscape:label="Layer 1"
       id="layer1"
       transform="matrix(0.66279687,0,0,0.66279687,84.300781,84.300779)"><g
         transform="matrix(2.6319672,0,0,2.6314723,-128.78479,-370.11946)"
         id="g2424"
         style="fill:#1e1f22;fill-opacity:1"><g
           transform="matrix(0.6378586,0,0,0.6378586,36.486487,2.17139)"
           id="g2809"
           style="fill:#1e1f22;fill-opacity:1" /><g
           transform="matrix(0.9443373,0,0.01336345,0.9443373,78.345657,-412.48879)"
           id="g5326"
           style="fill:#1e1f22;fill-opacity:1;stroke:none" /><path
           d="m 105.8125,16.625 c -7.39687,18.135158 -11.858304,29.997682 -20.09375,47.59375 5.04936,5.35232 11.247211,11.585364 21.3125,18.625 C 96.210077,78.390904 88.828713,73.920352 83.3125,69.28125 72.7727,91.274163 56.259864,122.60209 22.75,182.8125 49.087628,167.60733 69.504089,158.23318 88.53125,154.65625 87.714216,151.1422 87.2497,147.34107 87.28125,143.375 l 0.03125,-0.84375 c 0.417917,-16.87382 9.195665,-29.84979 19.59375,-28.96875 10.39809,0.88104 18.48041,15.28242 18.0625,32.15625 -0.0786,3.17512 -0.43674,6.22955 -1.0625,9.0625 18.82058,3.68164 39.01873,13.03179 65,28.03125 -5.123,-9.4318 -9.69572,-17.93388 -14.0625,-26.03125 -6.87839,-5.33121 -14.05289,-12.2698 -28.6875,-19.78125 10.05899,2.61375 17.2611,5.62932 22.875,9 C 124.63297,63.338161 121.03766,52.354109 105.8125,16.625 Z"
           transform="matrix(1.1433333,0,0,1.1433333,22.920168,121.64318)"
           id="path2518"
           style="fill:#1e1f22;fill-opacity:1;fill-rule:evenodd;stroke:none" /><g
           id="text2634"
           style="font-style:normal;font-weight:normal;font-size:8.44138px;font-family:'DejaVu Sans Mono';fill:#1e1f22;fill-opacity:1;stroke:none" /><g
           id="text2638"
           style="font-style:normal;font-weight:normal;font-size:8.2513px;font-family:'DejaVu Sans Mono';fill:#1e1f22;fill-opacity:1;stroke:none" /></g><path
         style="fill:none;stroke-width:0.264583"
         d="m 156.41912,192.59444 4.31998,53.75524 288.2486,15.31188 -6.00581,-78.66275 z"
         id="path404" /><path
         style="fill:none;stroke-width:0.264583"
         d="m 155.70787,183.43627 3.59089,65.17411 294.82191,11.17339 -3.92973,-91.53245 z"
         id="path406" /></g></g></svg>
