<?xml version="1.0" encoding="UTF-8" standalone="no"?>
<!-- Created with Inkscape (http://www.inkscape.org/) -->

<svg
   width="500mm"
   height="500mm"
   viewBox="0 0 500 500"
   version="1.1"
   id="svg5"
   xml:space="preserve"
   inkscape:export-filename="fedora.svg"
   inkscape:export-xdpi="96"
   inkscape:export-ydpi="96"
   sodipodi:docname="gentoo.svg"
   inkscape:version="1.2.2 (b0a8486541, 2022-12-01)"
   xmlns:inkscape="http://www.inkscape.org/namespaces/inkscape"
   xmlns:sodipodi="http://sodipodi.sourceforge.net/DTD/sodipodi-0.dtd"
   xmlns="http://www.w3.org/2000/svg"
   xmlns:svg="http://www.w3.org/2000/svg"><sodipodi:namedview
     id="namedview7"
     pagecolor="#505050"
     bordercolor="#ffffff"
     borderopacity="1"
     inkscape:showpageshadow="0"
     inkscape:pageopacity="0"
     inkscape:pagecheckerboard="1"
     inkscape:deskcolor="#505050"
     inkscape:document-units="mm"
     showgrid="false"
     inkscape:zoom="0.29260668"
     inkscape:cx="760.40644"
     inkscape:cy="837.30147"
     inkscape:window-width="960"
     inkscape:window-height="1011"
     inkscape:window-x="26"
     inkscape:window-y="23"
     inkscape:window-maximized="0"
     inkscape:current-layer="svg5" /><defs
     id="defs2"><linearGradient
       id="_Linear1"
       x1="0"
       y1="0"
       x2="1"
       y2="0"
       gradientUnits="userSpaceOnUse"
       gradientTransform="matrix(244.692,1281.55,-1281.55,244.692,-44.6924,-886.62)"><stop
         offset="0%"
         style="stop-color:#fff;stop-opacity:1"
         id="stop2452" /><stop
         offset="34%"
         style="stop-color:#fff;stop-opacity:1"
         id="stop2454" /><stop
         offset="51%"
         style="stop-color:#bebdf3;stop-opacity:1"
         id="stop2456" /><stop
         offset="75%"
         style="stop-color:#867fb7;stop-opacity:1"
         id="stop2458" /><stop
         offset="87%"
         style="stop-color:#9f99c7;stop-opacity:1"
         id="stop2460" /><stop
         offset="100%"
         style="stop-color:#524c76;stop-opacity:1"
         id="stop2462" /></linearGradient><linearGradient
       id="_Linear2"
       x1="0"
       y1="0"
       x2="1"
       y2="0"
       gradientUnits="userSpaceOnUse"
       gradientTransform="matrix(-73.9103,-331.394,331.394,-73.9103,256.323,293.128)"><stop
         offset="0%"
         style="stop-color:#fff;stop-opacity:1"
         id="stop2465" /><stop
         offset="34%"
         style="stop-color:#fff;stop-opacity:1"
         id="stop2467" /><stop
         offset="51%"
         style="stop-color:#bebbdb;stop-opacity:1"
         id="stop2469" /><stop
         offset="75%"
         style="stop-color:#928bbe;stop-opacity:1"
         id="stop2471" /><stop
         offset="87%"
         style="stop-color:#9f99c7;stop-opacity:1"
         id="stop2473" /><stop
         offset="100%"
         style="stop-color:#524c76;stop-opacity:1"
         id="stop2475" /></linearGradient><radialGradient
       id="_Radial3"
       cx="0"
       cy="0"
       r="1"
       gradientUnits="userSpaceOnUse"
       gradientTransform="matrix(65.7758,0,0,50.4149,169.619,91.661)"><stop
         offset="0%"
         style="stop-color:#fff;stop-opacity:1"
         id="stop2478" /><stop
         offset="34%"
         style="stop-color:#fff;stop-opacity:1"
         id="stop2480" /><stop
         offset="51%"
         style="stop-color:#bebbdb;stop-opacity:1"
         id="stop2482" /><stop
         offset="75%"
         style="stop-color:#928bbe;stop-opacity:1"
         id="stop2484" /><stop
         offset="87%"
         style="stop-color:#9f99c7;stop-opacity:1"
         id="stop2486" /><stop
         offset="100%"
         style="stop-color:#524c76;stop-opacity:1"
         id="stop2488" /></radialGradient><radialGradient
       id="_Radial4"
       cx="0"
       cy="0"
       r="1"
       gradientUnits="userSpaceOnUse"
       gradientTransform="matrix(-9.01713,572.145,-487.965,-7.68295,19.9686,107.795)"><stop
         offset="0%"
         style="stop-color:#fff;stop-opacity:1"
         id="stop2491" /><stop
         offset="34%"
         style="stop-color:#fff;stop-opacity:1"
         id="stop2493" /><stop
         offset="51%"
         style="stop-color:#bebbdb;stop-opacity:1"
         id="stop2495" /><stop
         offset="75%"
         style="stop-color:#928bbe;stop-opacity:1"
         id="stop2497" /><stop
         offset="87%"
         style="stop-color:#9f99c7;stop-opacity:1"
         id="stop2499" /><stop
         offset="100%"
         style="stop-color:#524c76;stop-opacity:1"
         id="stop2501" /></radialGradient></defs><g
     id="g5680"
     transform="matrix(1.2825169,0,0,1.2825169,-6.5034201,-6.5033965)"
     style="clip-rule:evenodd;fill-rule:evenodd;stroke-linejoin:round;stroke-miterlimit:1.41421"><path
       id="path2973"
       d="M 13.83,315.949 C 13.873,299.502 27.854,276.541 47.719,255.681 60.995,241.74 74.478,229.503 103.869,204.443 83.539,193.287 51.919,179.828 36.054,162.201 30.184,155.679 19.543,140.903 21.607,121.162 25.813,80.926 75.476,19.864 146.067,6.955 c 23.488,-4.296 50.455,-1.195 72.65,8.783 69.629,31.304 154.782,109.073 165.259,147.046 3.688,13.366 2.979,34.671 -3.379,46.545 -7.879,14.716 -35.156,44.606 -72.475,75.449 C 249.566,333.172 167.51,385.137 106.241,393.881 86.443,396.707 66.217,393.76 52.023,385.751 29.814,373.219 22.442,356.489 19.851,351.474 12.96,338.14 13.815,321.246 13.83,315.949 Z m 164.8,-184.776 c 0.756,-9.325 37.321,-0.042 35.011,7.343 -2.437,7.791 -35.879,3.354 -35.011,-7.343 z"
       style="fill:#1e1f22;fill-opacity:0.33000001" /><path
       id="path2975"
       d="m 123.659,189.035 c -19.242,16.246 -32.036,27.2 -48.075,41.86 -38.626,35.304 -64.871,62.176 -51.34,98.909 15.609,42.374 49.824,40.226 89.947,32.35 C 217.612,341.756 387.617,211.059 378.952,162.784 371.94,123.723 276.96,46.063 220.725,18.428 203.156,9.794 182.909,5.329 162.601,6.285 85.274,9.935 24.886,80.337 27.971,118.482 c 3.001,37.11 96.795,69.446 95.688,70.553 z M 112.052,59.482 c -23.268,25.888 -8.392,75.974 30.195,103.274 45.152,31.945 118.269,37.729 132.819,13.093 27.14,-45.952 -2.493,-94.54 -46.727,-116.214 C 184.628,38.217 126.556,43.345 112.052,59.482 Z"
       style="fill:#1e1f22;fill-opacity:0.5" /><path
       id="path4976"
       d="m 191.403,161.67 c 32.666,4.541 60.822,-8.541 65.225,-40.798 3.354,-24.571 -34.25,-51.417 -56.859,-57.608 -18.88,-5.171 -59.869,1.478 -62.633,37.186 -2.872,37.121 35.22,58.573 54.267,61.22 z M 175.407,99.931 c -21.468,33.258 31.169,43.483 39.228,37.418 34.744,-26.149 -29.77,-52.07 -39.228,-37.418 z"
       style="fill:#666666;fill-opacity:1" /><path
       id="path2977"
       d="m 156.368,15.122 c -37.974,4.001 -45.246,8.889 -79.647,34.916 -11.53,8.723 -32.75,29.948 -38.187,55.128 -2.071,9.59 0.377,17.87 7.283,23.676 22.116,18.593 59.131,33.677 89.498,48.259 8.894,4.271 3.005,12.015 -11.338,24.432 -36.194,31.334 -85.128,69.476 -88.544,98.54 -1.61,13.695 3.079,32.305 19.702,41.828 19.419,11.125 59.729,3.864 86.646,-6.159 39.334,-14.647 91.003,-46.973 132.023,-78.748 42.655,-33.043 82.316,-75.011 84.277,-81.856 2.409,-8.406 2.169,-16.169 -2.48,-25.096 C 348.3,136.025 338.539,125.61 328.059,113.951 299.937,84.304 270.183,58.254 234.584,38.291 208.877,23.875 186.259,11.972 156.368,15.122 Z m 55.781,66.466 c 27.434,13.263 55.606,48.102 -0.245,68.154 -15.187,5.453 -63.352,-13.391 -61.878,-39.107 2.15,-37.987 28.625,-45.242 62.123,-29.047 z"
       style="fill:#1e1f22;fill-opacity:1" /></g></svg>
