<?xml version="1.0" encoding="UTF-8" standalone="no"?>
<!-- Created with Inkscape (http://www.inkscape.org/) -->

<svg
   width="500mm"
   height="500mm"
   viewBox="0 0 500 500"
   version="1.1"
   id="svg5"
   xml:space="preserve"
   inkscape:export-filename="nix.svg"
   inkscape:export-xdpi="96"
   inkscape:export-ydpi="96"
   sodipodi:docname="opensuse.svg"
   inkscape:version="1.2.2 (b0a8486541, 2022-12-01)"
   xmlns:inkscape="http://www.inkscape.org/namespaces/inkscape"
   xmlns:sodipodi="http://sodipodi.sourceforge.net/DTD/sodipodi-0.dtd"
   xmlns="http://www.w3.org/2000/svg"
   xmlns:svg="http://www.w3.org/2000/svg"><sodipodi:namedview
     id="namedview7"
     pagecolor="#505050"
     bordercolor="#ffffff"
     borderopacity="1"
     inkscape:showpageshadow="0"
     inkscape:pageopacity="0"
     inkscape:pagecheckerboard="1"
     inkscape:deskcolor="#505050"
     inkscape:document-units="mm"
     showgrid="false"
     showguides="true"
     inkscape:zoom="0.1767767"
     inkscape:cx="806.10173"
     inkscape:cy="729.73419"
     inkscape:window-width="1920"
     inkscape:window-height="1011"
     inkscape:window-x="26"
     inkscape:window-y="23"
     inkscape:window-maximized="0"
     inkscape:current-layer="svg5"><inkscape:grid
       type="xygrid"
       id="grid301" /></sodipodi:namedview><defs
     id="defs2"><inkscape:path-effect
       effect="slice"
       center_point="-38.254277,-85.348562"
       id="path-effect4198"
       is_visible="true"
       lpeversion="1.2"
       lpesatellites=""
       allow_transforms="true"
       start_point="20.052317,-85.348562"
       end_point="-96.560871,-85.348562" /><inkscape:path-effect
       effect="slice"
       center_point="223.23073,78.834897"
       id="path-effect4124"
       is_visible="true"
       lpeversion="1.2"
       lpesatellites="#g4148 | #g4172 | #g4196"
       allow_transforms="true"
       start_point="383.23073,78.834897"
       end_point="63.23073,78.834897" /><inkscape:path-effect
       effect="slice"
       center_point="-67.349516,-32.384386"
       id="path-effect4120"
       is_visible="true"
       lpeversion="1.2"
       lpesatellites=""
       allow_transforms="true"
       start_point="-67.349516,-106.71037"
       end_point="-67.349516,41.941595" /><inkscape:path-effect
       end_point="160,200.3"
       start_point="160,0"
       center_point="160,100.15"
       effect="slice"
       id="path-effect4094"
       is_visible="true"
       lpeversion="1.2"
       lpesatellites="#g4118"
       allow_transforms="true" /><inkscape:path-effect
       effect="slice"
       center_point="195.3791,98.018052"
       id="path-effect425"
       is_visible="true"
       lpeversion="1.2"
       lpesatellites=""
       allow_transforms="true"
       start_point="195.3791,-2.1319465"
       end_point="195.3791,198.16805" /><clipPath
       id="vlpa"><path
         d="M 0,200.3 H 320 V 0 H 0 Z"
         id="path3725" /></clipPath></defs><style
     type="text/css"
     id="style2961">
	.st0{fill:#FFFFFF;}
	.st1{fill:#69B53F;}
	.st2{fill:#F8F8F8;}
</style><g
     clip-path="url(#vlpa)"
     id="g3770"
     transform="matrix(2.8537828,0,0,-2.8537828,-557.54432,720.74857)"
     style="fill:#1e1f22;fill-opacity:1"
     class="UnoptimicedTransforms"
     inkscape:path-effect="#path-effect4094;#path-effect4124"><g
       transform="translate(262.7,162.7)"
       id="g3732"
       style="fill:#1e1f22;fill-opacity:1"><path
         id="path4200"
         d="m -43.501953,-85.347656 c -6.110361,2.819469 -12.880252,5.947577 -13.181641,6.111328 l -0.693359,0.517578 -0.589844,0.533203 c -1.463912,1.411938 -4.188259,4.33225 -9.382812,10.275391 V 34.310547 c 19.476193,-3.347274 35.75265,-8.615258 38.746093,-9.621094 0.024,0.959 0.183594,9.539063 0.183594,9.539063 l 0.125,0.300781 0.330078,0.08984 c 1.94,-0.28 43.34078,-6.419844 60.800782,-16.589844 2.154999,-1.261 3.219828,-2.600938 4.548828,-3.960938 4.82,-4.9899984 11.197906,-25.739531 11.878906,-30.019531 l -0.269531,-0.417969 c -0.249,-0.098 -0.839532,-0.538312 -1.644532,-1.070312 h 0.01172 c -4.07,-2.848 -13.579062,-9.508875 -25.789062,-8.421875 -10.97,0.97 -25.2905482,7.260625 -42.560547,18.6406249 0.77,-1.801 4.371937,-10.3099999 4.960937,-11.7499999 L -15.787109,-19.25 c 2.5,-1.3 26.49039,-13.520297 38.40039,-13.279297 9.59,0.2 19.852985,4.878609 23.958985,7.349609 l 1.294922,0.240235 c 0.370997,-0.291 0.310984,-0.840375 0.208984,-1.359375 -0.252,-1.179 -0.82775,-3.328607 -1.21875,-4.34961 l -0.330078,-0.832031 c -0.471,-1.259 -0.921016,-2.42939 -1.791016,-3.15039 -2.421,-2.199 -6.281078,-3.948125 -12.330078,-6.578125 -9.35,-4.09 -24.5196094,-6.690563 -38.5996094,-6.601563 -5.0479996,0.112 -9.9192186,0.671875 -14.1992186,1.171875 -13.11,1.48 -22.591547,2.560391 -24.560547,-9.349609 -1.798982,-10.757915 4.972581,-23.176744 8.966797,-29.359375 z m 60.591797,67.007812 c 4.756,-0.16 9.260703,1.509766 12.720703,4.759766 3.45,3.21 5.429281,7.600078 5.613281,12.330078 0.33,9.751 -7.338609,17.990844 -17.099609,18.339844 -4.735,0.15 -9.2509378,-1.519 -12.7109378,-4.75 C 2.1552815,9.1198431 0.175,4.73 0,0 H 0.00976563 C -0.3202344,-9.76 7.3408432,-17.980844 17.089844,-18.339844 Z m 0.246094,5.5 c -6.809002,0.25 -12.1518755,5.9895471 -11.9218755,12.81054712 0.1,3.30099998 1.5150625,6.34765628 3.9140625,8.59765628 2.4,2.2499996 5.540561,3.4197816 8.851563,3.3007816 h 0.0039 c 6.821,-0.24 12.159687,-5.972016 11.929687,-12.791016 -0.105,-3.288 -1.49139,-6.3366563 -3.90039,-8.5976562 -2.414,-2.2499998 -5.567954,-3.4203128 -8.876953,-3.3203128 z m 2.863281,11.199219 c 3.029,0 5.484328,1.6403907 5.486328,3.6503906 0,2.029 -2.455328,3.6601563 -5.486328,3.6601563 -3.031,0 -5.478516,-1.6311563 -5.478516,-3.6601563 0,-2.0099999 2.447516,-3.6503906 5.478516,-3.6503906 z"
         style="display:inline;fill:#1e1f22;fill-opacity:1"
         inkscape:original-d="m -43.502835,-85.348562 c -6.110361,2.819469 -12.87937,5.948483 -13.180759,6.112234 l -0.693359,0.517578 -0.589844,0.533203 c -1.463912,1.411938 -4.188259,4.33225 -9.382812,10.275391 V 34.310547 c 19.476193,-3.347274 35.75265,-8.615258 38.746093,-9.621094 0.024,0.959 0.183594,9.539063 0.183594,9.539063 l 0.125,0.300781 0.330078,0.08984 c 1.94,-0.28 43.34078,-6.419844 60.800782,-16.589844 2.155,-1.261 3.219828,-2.600938 4.548828,-3.960938 4.82,-4.9899992 11.197906,-25.739531 11.878906,-30.019531 l -0.269531,-0.417969 c -0.249,-0.098 -0.839532,-0.538312 -1.644532,-1.070312 h 0.01172 c -4.07,-2.848 -13.579062,-9.508875 -25.789062,-8.421875 -10.97,0.97 -25.2905476,7.260625 -42.560547,18.6406249 0.77,-1.801 4.371937,-10.3099999 4.960937,-11.7499999 L -15.787109,-19.25 c 2.5,-1.3 26.49039,-13.520297 38.40039,-13.279297 9.59,0.2 19.852985,4.878609 23.958985,7.349609 l 1.294922,0.240235 c 0.370998,-0.291 0.310984,-0.840375 0.208984,-1.359375 -0.252,-1.179 -0.82775,-3.328609 -1.21875,-4.34961 l -0.330078,-0.832031 c -0.471,-1.259 -0.921016,-2.42939 -1.791016,-3.15039 -2.421,-2.199 -6.281078,-3.948125 -12.330078,-6.578125 -9.35,-4.09 -24.5196094,-6.690563 -38.5996094,-6.601563 -5.0479996,0.112 -9.9192186,0.671875 -14.1992186,1.171875 -13.11,1.48 -22.591547,2.560391 -24.560547,-9.349609 -1.798982,-10.757915 4.971971,-23.17765 8.966187,-29.360281 z m 60.592679,67.008718 c 4.756,-0.16 9.260703,1.509766 12.720703,4.759766 3.45,3.21 5.429281,7.600078 5.613281,12.330078 0.33,9.751 -7.338609,17.990844 -17.099609,18.339844 -4.735,0.15 -9.2509378,-1.519 -12.7109378,-4.75 C 2.1552814,9.1198436 0.175,4.73 0,0 H 0.00976563 C -0.32023439,-9.76 7.3408436,-17.980844 17.089844,-18.339844 Z m 0.246094,5.5 c -6.809001,0.25 -12.1518755,5.9895471 -11.9218755,12.81054712 0.1,3.30099998 1.5150625,6.34765628 3.9140625,8.59765628 2.4,2.2499996 5.540562,3.4197816 8.851563,3.3007816 h 0.0039 c 6.821,-0.24 12.159687,-5.972016 11.929687,-12.791016 -0.105,-3.288 -1.49139,-6.3366562 -3.90039,-8.5976562 -2.414,-2.2499998 -5.567953,-3.4203128 -8.876953,-3.3203128 z m 2.863281,11.199219 c 3.029,0 5.484328,1.64039065 5.486328,3.6503906 0,2.029 -2.455328,3.6601563 -5.486328,3.6601563 -3.031,0 -5.478516,-1.6311563 -5.478516,-3.6601563 0,-2.00999995 2.447516,-3.6503906 5.478516,-3.6503906 z" /></g><g
       transform="translate(134,60.29)"
       id="g3736"
       style="fill:#1e1f22;fill-opacity:1" /><g
       transform="translate(206.8,60.29)"
       id="g3740"
       style="fill:#1e1f22;fill-opacity:1" /><g
       transform="translate(232.8,60.29)"
       id="g3744"
       style="fill:#1e1f22;fill-opacity:1" /><g
       transform="translate(273.7,60.29)"
       id="g3748"
       style="fill:#1e1f22;fill-opacity:1" /><g
       transform="translate(5.053,20.49)"
       id="g3752"
       style="fill:#1e1f22;fill-opacity:1" /><g
       transform="translate(35.51,20.78)"
       id="g3756"
       style="fill:#1e1f22;fill-opacity:1" /><g
       transform="translate(66.07,34.09)"
       id="g3760"
       style="fill:#1e1f22;fill-opacity:1" /><g
       transform="translate(104.9,41.74)"
       id="g3764"
       style="fill:#1e1f22;fill-opacity:1" /><g
       transform="translate(315.4,18.75)"
       id="g3768"
       style="fill:#1e1f22;fill-opacity:1" /></g><g
     class="UnoptimicedTransforms"
     clip-path="url(#vlpa)"
     id="g4118"
     style="display:none;fill:#1e1f22;fill-opacity:1"
     transform="matrix(2.8537828,0,0,-2.8537828,-557.54432,720.74857)"><g
       transform="translate(262.7,162.7)"
       id="g4098"
       style="fill:#1e1f22;fill-opacity:1"><path
         id="path4096"
         d=""
         style="fill:#1e1f22;fill-opacity:1" /></g><g
       transform="translate(134,60.29)"
       id="g4100"
       style="fill:#1e1f22;fill-opacity:1" /><g
       transform="translate(206.8,60.29)"
       id="g4102"
       style="fill:#1e1f22;fill-opacity:1" /><g
       transform="translate(232.8,60.29)"
       id="g4104"
       style="fill:#1e1f22;fill-opacity:1" /><g
       transform="translate(273.7,60.29)"
       id="g4106"
       style="fill:#1e1f22;fill-opacity:1" /><g
       transform="translate(5.053,20.49)"
       id="g4108"
       style="fill:#1e1f22;fill-opacity:1" /><g
       transform="translate(35.51,20.78)"
       id="g4110"
       style="fill:#1e1f22;fill-opacity:1" /><g
       transform="translate(66.07,34.09)"
       id="g4112"
       style="fill:#1e1f22;fill-opacity:1" /><g
       transform="translate(104.9,41.74)"
       id="g4114"
       style="fill:#1e1f22;fill-opacity:1" /><g
       transform="translate(315.4,18.75)"
       id="g4116"
       style="fill:#1e1f22;fill-opacity:1" /></g><g
     transform="matrix(2.8537828,0,0,-2.8537828,-557.54432,720.74857)"
     clip-path="url(#vlpa)"
     id="g4148"
     style="display:none;fill:#1e1f22;fill-opacity:1"
     class="UnoptimicedTransforms"><g
       transform="translate(262.7,162.7)"
       id="g4128"
       style="fill:#1e1f22;fill-opacity:1"><path
         id="path4126"
         d=""
         style="display:inline;fill:#1e1f22;fill-opacity:1" /></g><g
       transform="translate(134,60.29)"
       id="g4130"
       style="fill:#1e1f22;fill-opacity:1" /><g
       transform="translate(206.8,60.29)"
       id="g4132"
       style="fill:#1e1f22;fill-opacity:1" /><g
       transform="translate(232.8,60.29)"
       id="g4134"
       style="fill:#1e1f22;fill-opacity:1" /><g
       transform="translate(273.7,60.29)"
       id="g4136"
       style="fill:#1e1f22;fill-opacity:1" /><g
       transform="translate(5.053,20.49)"
       id="g4138"
       style="fill:#1e1f22;fill-opacity:1" /><g
       transform="translate(35.51,20.78)"
       id="g4140"
       style="fill:#1e1f22;fill-opacity:1" /><g
       transform="translate(66.07,34.09)"
       id="g4142"
       style="fill:#1e1f22;fill-opacity:1" /><g
       transform="translate(104.9,41.74)"
       id="g4144"
       style="fill:#1e1f22;fill-opacity:1" /><g
       transform="translate(315.4,18.75)"
       id="g4146"
       style="fill:#1e1f22;fill-opacity:1" /></g><g
     transform="matrix(2.8537828,0,0,-2.8537828,-557.54432,720.74857)"
     clip-path="url(#vlpa)"
     id="g4172"
     style="display:none;fill:#1e1f22;fill-opacity:1"
     class="UnoptimicedTransforms"><g
       transform="translate(262.7,162.7)"
       id="g4152"
       style="fill:#1e1f22;fill-opacity:1"><path
         id="path4150"
         d=""
         style="display:inline;fill:#1e1f22;fill-opacity:1" /></g><g
       transform="translate(134,60.29)"
       id="g4154"
       style="fill:#1e1f22;fill-opacity:1" /><g
       transform="translate(206.8,60.29)"
       id="g4156"
       style="fill:#1e1f22;fill-opacity:1" /><g
       transform="translate(232.8,60.29)"
       id="g4158"
       style="fill:#1e1f22;fill-opacity:1" /><g
       transform="translate(273.7,60.29)"
       id="g4160"
       style="fill:#1e1f22;fill-opacity:1" /><g
       transform="translate(5.053,20.49)"
       id="g4162"
       style="fill:#1e1f22;fill-opacity:1" /><g
       transform="translate(35.51,20.78)"
       id="g4164"
       style="fill:#1e1f22;fill-opacity:1" /><g
       transform="translate(66.07,34.09)"
       id="g4166"
       style="fill:#1e1f22;fill-opacity:1" /><g
       transform="translate(104.9,41.74)"
       id="g4168"
       style="fill:#1e1f22;fill-opacity:1" /><g
       transform="translate(315.4,18.75)"
       id="g4170"
       style="fill:#1e1f22;fill-opacity:1" /></g><g
     transform="matrix(2.8537828,0,0,-2.8537828,-557.54432,720.74857)"
     clip-path="url(#vlpa)"
     id="g4196"
     style="display:none;fill:#1e1f22;fill-opacity:1"
     class="UnoptimicedTransforms"><g
       transform="translate(262.7,162.7)"
       id="g4176"
       style="fill:#1e1f22;fill-opacity:1"><path
         id="path4174"
         d="" /></g><g
       transform="translate(134,60.29)"
       id="g4178"
       style="fill:#1e1f22;fill-opacity:1" /><g
       transform="translate(206.8,60.29)"
       id="g4180"
       style="fill:#1e1f22;fill-opacity:1" /><g
       transform="translate(232.8,60.29)"
       id="g4182"
       style="fill:#1e1f22;fill-opacity:1" /><g
       transform="translate(273.7,60.29)"
       id="g4184"
       style="fill:#1e1f22;fill-opacity:1" /><g
       transform="translate(5.053,20.49)"
       id="g4186"
       style="fill:#1e1f22;fill-opacity:1" /><g
       transform="translate(35.51,20.78)"
       id="g4188"
       style="fill:#1e1f22;fill-opacity:1" /><g
       transform="translate(66.07,34.09)"
       id="g4190"
       style="fill:#1e1f22;fill-opacity:1" /><g
       transform="translate(104.9,41.74)"
       id="g4192"
       style="fill:#1e1f22;fill-opacity:1" /><g
       transform="translate(315.4,18.75)"
       id="g4194"
       style="fill:#1e1f22;fill-opacity:1" /></g></svg>
