<?xml version="1.0" encoding="UTF-8" standalone="no"?>
<!-- Created with Inkscape (http://www.inkscape.org/) -->

<svg
   width="500mm"
   height="500mm"
   viewBox="0 0 500 500"
   version="1.1"
   id="svg5"
   xml:space="preserve"
   inkscape:export-filename="nix.svg"
   inkscape:export-xdpi="96"
   inkscape:export-ydpi="96"
   sodipodi:docname="opensuse.svg"
   inkscape:version="1.2.2 (b0a8486541, 2022-12-01)"
   xmlns:inkscape="http://www.inkscape.org/namespaces/inkscape"
   xmlns:sodipodi="http://sodipodi.sourceforge.net/DTD/sodipodi-0.dtd"
   xmlns="http://www.w3.org/2000/svg"
   xmlns:svg="http://www.w3.org/2000/svg"><sodipodi:namedview
     id="namedview7"
     pagecolor="#505050"
     bordercolor="#ffffff"
     borderopacity="1"
     inkscape:showpageshadow="0"
     inkscape:pageopacity="0"
     inkscape:pagecheckerboard="1"
     inkscape:deskcolor="#505050"
     inkscape:document-units="mm"
     showgrid="false"
     showguides="true"
     inkscape:zoom="0.25"
     inkscape:cx="-82"
     inkscape:cy="828"
     inkscape:window-width="1920"
     inkscape:window-height="1011"
     inkscape:window-x="26"
     inkscape:window-y="23"
     inkscape:window-maximized="0"
     inkscape:current-layer="svg5"><inkscape:grid
       type="xygrid"
       id="grid301" /></sodipodi:namedview><defs
     id="defs2"><inkscape:path-effect
       effect="slice"
       center_point="195.3791,98.018052"
       id="path-effect425"
       is_visible="true"
       lpeversion="1.2"
       lpesatellites=""
       allow_transforms="true"
       start_point="195.3791,-2.1319465"
       end_point="195.3791,198.16805" /><clipPath
       id="vlpa"><path
         d="M 0,200.3 H 320 V 0 H 0 Z"
         id="path3725" /></clipPath></defs><style
     type="text/css"
     id="style2961">
	.st0{fill:#FFFFFF;}
	.st1{fill:#69B53F;}
	.st2{fill:#F8F8F8;}
</style><g
     clip-path="url(#vlpa)"
     id="g3770"
     transform="matrix(2.8537828,0,0,-2.8537828,-557.54432,720.74857)"><g
       transform="translate(262.7,162.7)"
       id="g3732"><path
         d="m 0,0 c 0.175,4.73 2.156,9.12 5.614,12.34 3.46,3.231 7.975,4.9 12.71,4.75 9.761,-0.349 17.43,-8.589 17.1,-18.34 C 35.24,-5.98 33.26,-10.37 29.81,-13.58 26.35,-16.83 21.846,-18.5 17.09,-18.34 7.341,-17.981 -0.32,-9.76 0.01,0 Z m 47.35,-17.44 c 0.805,0.532 1.396,0.972 1.645,1.07 l 0.269,0.419 c -0.681,4.28 -7.06,25.03 -11.88,30.02 -1.329,1.36 -2.394,2.7 -4.549,3.961 -17.46,10.17 -58.86,16.31 -60.8,16.59 l -0.33,-0.091 -0.124,-0.3 c 0,0 -0.16,-8.58 -0.184,-9.539 -4.229,1.421 -34.97,11.35 -63.79,12.35 -24.44,0.859 -60.03,4.02 -107.2,-24.98 l -1.395,-0.868 c -22.19,-13.84 -37.51,-30.91 -45.52,-50.74 -2.512,-6.24 -5.89,-20.32 -2.542,-33.57 1.442,-5.791 4.131,-11.61 7.756,-16.82 8.194,-11.77 21.94,-19.58 36.75,-20.9 20.9,-1.87 36.73,7.519 42.36,25.1 3.871,12.13 0,29.93 -14.84,39.01 -12.07,7.391 -25.05,5.711 -32.58,0.73 -6.532,-4.331 -10.23,-11.06 -10.17,-18.45 0.151,-13.11 11.44,-20.08 19.56,-20.1 2.359,0 4.728,0.41 7.399,1.28 0.951,0.29 1.845,0.649 2.831,1.259 l 0.309,0.181 0.194,0.13 -0.065,-0.039 c 1.851,1.261 2.964,3.312 2.964,5.511 0,0.6 -0.084,1.208 -0.256,1.82 -0.959,3.32 -4.239,5.329 -7.638,4.71 l -0.459,-0.109 -0.621,-0.19 -0.901,-0.31 c -1.87,-0.46 -3.27,-0.5 -3.569,-0.51 -0.951,0.061 -5.625,1.461 -5.625,6.58 v 0.07 c 0,1.88 0.754,3.199 1.17,3.92 1.454,2.28 5.435,4.518 10.81,4.05 7.059,-0.611 12.15,-4.231 15.52,-11.06 3.129,-6.349 2.31,-14.16 -2.11,-19.88 -4.39,-5.669 -12.2,-8.078 -22.6,-6.959 -10.48,1.159 -19.34,7.19 -24.3,16.58 -4.856,9.178 -5.121,20.06 -0.685,28.42 10.61,20.03 30.65,19.82 41.64,17.92 16.26,-2.821 34.76,-17.82 41.32,-35.14 1.06,-2.761 1.6,-4.949 2.072,-6.951 l 0.708,-2.99 18.37,-8.969 0.24,-0.181 0.446,0.041 0.081,0.529 c -0.114,0.411 -0.381,0.789 -0.805,5.93 -0.349,4.562 -1.06,17.05 5.228,23.24 2.441,2.419 6.161,4.578 9.099,5.269 12.04,2.941 26.16,0.912 39.51,-14.54 6.911,-7.981 10.28,-11.62 11.97,-13.25 l 0.59,-0.532 0.694,-0.519 c 0.554,-0.301 22.96,-10.62 22.96,-10.62 l 0.461,0.11 0.009,0.479 c -0.149,0.17 -14.2,18.33 -11.7,33.28 1.969,11.91 11.45,10.83 24.56,9.35 4.28,-0.5 9.152,-1.06 14.2,-1.172 14.08,-0.089 29.25,2.511 38.6,6.601 6.049,2.63 9.909,4.38 12.33,6.579 0.87,0.721 1.32,1.891 1.791,3.15 l 0.329,0.831 c 0.391,1.021 0.967,3.171 1.219,4.35 0.102,0.519 0.162,1.068 -0.209,1.359 l -1.294,-0.24 c -4.106,-2.471 -14.37,-7.15 -23.96,-7.35 -11.91,-0.241 -35.9,11.98 -38.4,13.28 l -0.241,0.279 c -0.589,1.44 -4.19,9.949 -4.96,11.75 17.27,-11.38 31.59,-17.67 42.56,-18.64 12.21,-1.087 21.72,5.574 25.79,8.422 H 47.361 Z M 20.2,-1.64 c -3.031,0 -5.479,1.64 -5.479,3.65 0,2.029 2.448,3.66 5.479,3.66 3.031,0 5.486,-1.631 5.486,-3.66 C 25.684,0 23.229,-1.64 20.2,-1.64 M 18.179,11.87 C 14.868,11.989 11.729,10.819 9.329,8.569 6.93,6.319 5.515,3.271 5.415,-0.03 c -0.23,-6.821 5.111,-12.56 11.92,-12.81 3.309,-0.1 6.464,1.07 8.878,3.32 2.409,2.261 3.795,5.311 3.9,8.599 0.23,6.819 -5.109,12.55 -11.93,12.79 z"
         style="fill:#73ba25"
         id="path3730" /></g><g
       transform="translate(134,60.29)"
       id="g3736" /><g
       transform="translate(206.8,60.29)"
       id="g3740" /><g
       transform="translate(232.8,60.29)"
       id="g3744" /><g
       transform="translate(273.7,60.29)"
       id="g3748" /><g
       transform="translate(5.053,20.49)"
       id="g3752" /><g
       transform="translate(35.51,20.78)"
       id="g3756" /><g
       transform="translate(66.07,34.09)"
       id="g3760" /><g
       transform="translate(104.9,41.74)"
       id="g3764" /><g
       transform="translate(315.4,18.75)"
       id="g3768" /></g></svg>
