<?xml version="1.0" encoding="UTF-8" standalone="no"?>
<!-- Created with Inkscape (http://www.inkscape.org/) -->

<svg
   width="500mm"
   height="500mm"
   viewBox="0 0 500 500"
   version="1.1"
   id="svg5"
   xml:space="preserve"
   inkscape:export-filename="fedora.svg"
   inkscape:export-xdpi="96"
   inkscape:export-ydpi="96"
   sodipodi:docname="reactos.svg"
   inkscape:version="1.2.2 (b0a8486541, 2022-12-01)"
   xmlns:inkscape="http://www.inkscape.org/namespaces/inkscape"
   xmlns:sodipodi="http://sodipodi.sourceforge.net/DTD/sodipodi-0.dtd"
   xmlns:xlink="http://www.w3.org/1999/xlink"
   xmlns="http://www.w3.org/2000/svg"
   xmlns:svg="http://www.w3.org/2000/svg"><sodipodi:namedview
     id="namedview7"
     pagecolor="#505050"
     bordercolor="#ffffff"
     borderopacity="1"
     inkscape:showpageshadow="0"
     inkscape:pageopacity="0"
     inkscape:pagecheckerboard="1"
     inkscape:deskcolor="#505050"
     inkscape:document-units="mm"
     showgrid="false"
     inkscape:zoom="0.70710678"
     inkscape:cx="549.42197"
     inkscape:cy="869.74134"
     inkscape:window-width="1920"
     inkscape:window-height="1011"
     inkscape:window-x="26"
     inkscape:window-y="23"
     inkscape:window-maximized="0"
     inkscape:current-layer="layer1" /><defs
     id="defs2"><inkscape:path-effect
       center_point="235.70295,249.99769"
       end_point="235.70295,370.71748"
       start_point="235.70295,129.2779"
       effect="slice"
       id="path-effect2918"
       is_visible="true"
       lpeversion="1.2"
       lpesatellites=""
       allow_transforms="true" /><inkscape:path-effect
       effect="slice"
       start_point="292.73707,47.678527"
       end_point="292.73707,311.05599"
       center_point="292.73707,179.36726"
       id="path-effect2894"
       is_visible="true"
       lpeversion="1.2"
       lpesatellites=""
       allow_transforms="true" /><linearGradient
       id="linearGradient7995"><stop
         stop-color="#FFF"
         stop-opacity="0"
         offset="0"
         id="stop5445" /><stop
         stop-color="#FFF"
         stop-opacity="0"
         offset="0.851163"
         id="stop5447" /><stop
         stop-color="#FFF"
         offset="0.851163"
         id="stop5449" /><stop
         stop-color="#FFF"
         stop-opacity="0"
         offset="0.962791"
         id="stop5451" /><stop
         stop-color="#FFF"
         stop-opacity="0"
         offset="1"
         id="stop5453" /></linearGradient><linearGradient
       id="linearGradient4583"><stop
         stop-color="#e5f4ff"
         offset="0"
         id="stop5456" /><stop
         stop-color="#e5f4ff"
         offset="0.232558"
         id="stop5458" /><stop
         stop-color="#254863"
         stop-opacity="0"
         offset="1"
         id="stop5460" /></linearGradient><linearGradient
       id="linearGradient3800"><stop
         stop-color="#466886"
         offset="0"
         id="stop5463" /><stop
         stop-color="#617689"
         stop-opacity="0"
         offset="1"
         id="stop5465" /></linearGradient><linearGradient
       id="linearGradient4522"><stop
         stop-color="#FFF"
         offset="0"
         id="stop5468" /><stop
         stop-color="#FFF"
         stop-opacity="0"
         offset="1"
         id="stop5470" /></linearGradient><linearGradient
       id="linearGradient17671"><stop
         stop-color="#FFF"
         stop-opacity="0.41618496"
         offset="0"
         id="stop5473" /><stop
         stop-color="#FFF"
         stop-opacity="0"
         offset="1"
         id="stop5475" /></linearGradient><filter
       id="filter6606"
       height="1.2335017"
       width="1.349356"
       y="-0.11675085"
       x="-0.17467802"><feGaussianBlur
         stdDeviation="7.2083506"
         id="feGaussianBlur5478" /></filter><filter
       id="filter6610"
       height="1.2221514"
       width="1.3755969"
       y="-0.11107571"
       x="-0.18779846"><feGaussianBlur
         stdDeviation="7.2083506"
         id="feGaussianBlur5481" /></filter><filter
       id="filter6614"
       x="-0.11445081"
       y="-0.11096298"
       width="1.2289016"
       height="1.221926"><feGaussianBlur
         stdDeviation="7.2083506"
         id="feGaussianBlur5484" /></filter><filter
       id="filter6618"
       height="1.2334732"
       width="1.4679665"
       y="-0.11673662"
       x="-0.23398324"><feGaussianBlur
         stdDeviation="7.2083506"
         id="feGaussianBlur5487" /></filter><filter
       id="filter6626"
       height="1.2781737"
       width="1.2825948"
       y="-0.13908687"
       x="-0.14129739"><feGaussianBlur
         stdDeviation="7.2083506"
         id="feGaussianBlur5490" /></filter><filter
       id="filter4518"
       height="1.4777565"
       width="1.4822632"
       y="-0.23887824"
       x="-0.24113158"><feGaussianBlur
         stdDeviation="10.125173"
         id="feGaussianBlur5493" /></filter><filter
       id="filter4546"
       x="-0.060050189"
       y="-0.060050189"
       width="1.1201004"
       height="1.1201004"><feGaussianBlur
         stdDeviation="0.58082045"
         id="feGaussianBlur5496" /></filter><filter
       id="filter4666"
       x="-0.058977778"
       y="-0.065114308"
       width="1.1179556"
       height="1.1302286"><feGaussianBlur
         stdDeviation="6.3816907"
         id="feGaussianBlur5499" /></filter><filter
       id="filter5237"
       height="1.3991721"
       width="1.6386765"
       y="-0.19958605"
       x="-0.31933824"><feGaussianBlur
         stdDeviation="2.2711229"
         id="feGaussianBlur5502" /></filter><filter
       id="filter7267"
       height="1.596642"
       width="1.9546288"
       y="-0.29832099"
       x="-0.47731442"><feGaussianBlur
         stdDeviation="3.3946442"
         id="feGaussianBlur5505" /></filter><filter
       id="filter3477"
       height="2.0001316"
       width="1.9524944"
       y="-0.50006582"
       x="-0.47624718"><feGaussianBlur
         stdDeviation="49.010201"
         id="feGaussianBlur5508" /></filter><filter
       id="filter3541"
       height="1.2560155"
       width="1.2836827"
       y="-0.12800777"
       x="-0.14184135"><feGaussianBlur
         stdDeviation="4.5608848"
         id="feGaussianBlur5511" /></filter><filter
       id="filter3545"
       height="1.2560155"
       width="1.2836827"
       y="-0.12800777"
       x="-0.14184135"><feGaussianBlur
         stdDeviation="4.5608848"
         id="feGaussianBlur5514" /></filter><filter
       id="filter3549"
       height="1.2560155"
       width="1.2836827"
       y="-0.12800777"
       x="-0.14184135"><feGaussianBlur
         stdDeviation="4.5608848"
         id="feGaussianBlur5517" /></filter><filter
       id="filter3553"
       height="1.2560155"
       width="1.2836827"
       y="-0.12800777"
       x="-0.14184135"><feGaussianBlur
         stdDeviation="4.5608848"
         id="feGaussianBlur5520" /></filter><filter
       id="filter3557"
       height="1.2560155"
       width="1.2836827"
       y="-0.12800777"
       x="-0.14184135"><feGaussianBlur
         stdDeviation="4.5608848"
         id="feGaussianBlur5523" /></filter><filter
       id="filter3561"
       height="1.2560155"
       width="1.2836827"
       y="-0.12800777"
       x="-0.14184135"><feGaussianBlur
         stdDeviation="4.5608848"
         id="feGaussianBlur5526" /></filter><filter
       id="filter3597"
       height="1.7057105"
       width="1.7218656"
       y="-0.35285527"
       x="-0.36093279"><feGaussianBlur
         stdDeviation="4.5116686"
         id="feGaussianBlur5529" /></filter><radialGradient
       id="radialGradient2677"
       gradientUnits="userSpaceOnUse"
       cy="775.88397"
       cx="385.866"
       gradientTransform="matrix(1,0,0,1.098684,0,-76.56746)"
       r="161.42599"><stop
         stop-color="#000"
         offset="0"
         id="stop5532" /><stop
         stop-color="#000"
         stop-opacity="0"
         offset="1"
         id="stop5534" /></radialGradient><radialGradient
       id="radialGradient2679"
       gradientUnits="userSpaceOnUse"
       cy="835.15997"
       cx="292.94199"
       gradientTransform="matrix(-1.2414154,0.7906519,0.7046472,1.1063777,17.23768,-980.81675)"
       r="49.305698"><stop
         stop-color="#FFF"
         offset="0"
         id="stop5537" /><stop
         stop-color="#FFF"
         stop-opacity="0"
         offset="1"
         id="stop5539" /></radialGradient><linearGradient
       id="linearGradient2681"
       y2="352.73199"
       gradientUnits="userSpaceOnUse"
       x2="491.327"
       gradientTransform="matrix(0.7446541,0,0,0.7446541,-3.2041063,0.7509507)"
       y1="205.392"
       x1="582.23602"><stop
         stop-color="#FFF"
         offset="0"
         id="stop5542" /><stop
         stop-color="#FFF"
         stop-opacity="0"
         offset="1"
         id="stop5544" /></linearGradient><radialGradient
       id="radialGradient2683"
       xlink:href="#linearGradient17671"
       spreadMethod="reflect"
       gradientUnits="userSpaceOnUse"
       cy="55.065498"
       cx="567.65002"
       gradientTransform="matrix(1,0,0,1.108068,0,-5.950834)"
       r="38.5858" /><radialGradient
       id="radialGradient2691"
       xlink:href="#linearGradient4522"
       gradientUnits="userSpaceOnUse"
       cy="249.494"
       cx="393.616"
       gradientTransform="matrix(1,0,0,0.905759,0,23.51251)"
       r="129.84599" /><radialGradient
       id="radialGradient2693"
       xlink:href="#linearGradient4522"
       gradientUnits="userSpaceOnUse"
       cy="268.32599"
       cx="401.10001"
       gradientTransform="matrix(0.6391732,-0.3071802,0.1899467,0.3952362,-37.856811,255.82041)"
       r="212.48199" /><radialGradient
       id="radialGradient2695"
       xlink:href="#linearGradient3800"
       gradientUnits="userSpaceOnUse"
       cy="118.281"
       cx="389.16699"
       r="11.6067" /><radialGradient
       id="radialGradient2703"
       xlink:href="#linearGradient4522"
       gradientUnits="userSpaceOnUse"
       cy="120.328"
       cx="541.81702"
       gradientTransform="matrix(1,0,0,1.220183,0,-26.49428)"
       r="74.100403" /><radialGradient
       id="radialGradient2747"
       xlink:href="#linearGradient4522"
       spreadMethod="reflect"
       gradientUnits="userSpaceOnUse"
       cy="55.065498"
       cx="567.65002"
       gradientTransform="matrix(1,0,0,1.108068,0,-5.950834)"
       r="38.5858" /><radialGradient
       id="radialGradient2759"
       gradientUnits="userSpaceOnUse"
       cy="1147.53"
       cx="346.733"
       gradientTransform="matrix(0.4652465,0,0,0.4650091,129.83888,-355.9606)"
       r="254.041"><stop
         stop-color="#FFF"
         stop-opacity="0"
         offset="0"
         id="stop5553" /><stop
         stop-color="#FFF"
         stop-opacity="0"
         offset="0.95"
         id="stop5555" /><stop
         stop-color="#FFF"
         offset="0.97"
         id="stop5557" /><stop
         stop-color="#FFF"
         stop-opacity="0"
         offset="0.991163"
         id="stop5559" /><stop
         stop-color="#FFF"
         stop-opacity="0"
         offset="1"
         id="stop5561" /></radialGradient><radialGradient
       id="radialGradient2765"
       gradientUnits="userSpaceOnUse"
       cy="118.281"
       cx="389.16699"
       r="11.6067"><stop
         stop-color="#000"
         offset="0"
         id="stop5564" /><stop
         stop-color="#000"
         stop-opacity="0"
         offset="1"
         id="stop5566" /></radialGradient><radialGradient
       id="radialGradient2767"
       xlink:href="#linearGradient4522"
       gradientUnits="userSpaceOnUse"
       cy="130.496"
       cx="439.41699"
       gradientTransform="matrix(1,0,0,1.0094295,2.4158933,11.986507)"
       r="50.388302" /><radialGradient
       id="radialGradient2769"
       xlink:href="#linearGradient17671"
       gradientUnits="userSpaceOnUse"
       cy="249.494"
       cx="393.616"
       gradientTransform="matrix(1,0,0,0.905759,0,23.51251)"
       r="129.84599" /><radialGradient
       id="radialGradient3569"
       gradientUnits="userSpaceOnUse"
       cy="1040.22"
       cx="392.07401"
       gradientTransform="matrix(1.0896219,1.2704115,-1.9939809,2.0570205,1844.3831,-1657.6391)"
       r="161.42599"><stop
         stop-color="#FFF"
         stop-opacity="0"
         offset="0"
         id="stop5571" /><stop
         stop-color="#FFF"
         stop-opacity="0"
         offset="0.930233"
         id="stop5573" /><stop
         stop-color="#FFF"
         offset="1"
         id="stop5575" /><stop
         stop-color="#FFF"
         stop-opacity="0"
         offset="1"
         id="stop5577" /></radialGradient><filter
       id="filter4553"
       x="-0.02311905"
       y="-0.024170091"
       width="1.0462381"
       height="1.0483402"><feGaussianBlur
         stdDeviation="5.1794966"
         id="feGaussianBlur5580" /></filter><filter
       id="filter4557"
       x="-0.023049572"
       y="-0.024181107"
       width="1.0460991"
       height="1.0483622"><feGaussianBlur
         stdDeviation="4.9633802"
         id="feGaussianBlur5583" /></filter><filter
       id="filter4561"
       x="-0.02318882"
       y="-0.024275125"
       width="1.0463776"
       height="1.0485503"><feGaussianBlur
         stdDeviation="4.9841362"
         id="feGaussianBlur5586" /></filter><filter
       id="filter4565"
       x="-0.023255964"
       y="-0.024333581"
       width="1.0465119"
       height="1.0486672"><feGaussianBlur
         stdDeviation="4.9805913"
         id="feGaussianBlur5589" /></filter><radialGradient
       id="radialGradient4589"
       spreadMethod="reflect"
       gradientUnits="userSpaceOnUse"
       cy="258.39999"
       cx="397.698"
       gradientTransform="matrix(0.9752836,-0.1739102,0.1452743,1.218352,-31.791146,3.8357559)"
       r="123.491"><stop
         stop-color="#e5f4ff"
         offset="0"
         id="stop5592" /><stop
         stop-color="#e5f4ff"
         stop-opacity="0"
         offset="1"
         id="stop5594" /></radialGradient><radialGradient
       id="radialGradient4591"
       xlink:href="#linearGradient4583"
       spreadMethod="reflect"
       gradientUnits="userSpaceOnUse"
       cy="249.494"
       cx="393.616"
       gradientTransform="matrix(1,0,0,0.9523714,0,11.88305)"
       r="123.491" /><filter
       id="filter4771"
       height="1.4411314"
       width="1.4201199"
       y="-0.22056571"
       x="-0.21005995"><feGaussianBlur
         stdDeviation="21.617094"
         id="feGaussianBlur5598" /></filter><filter
       id="filter4775"
       height="1.3559799"
       width="1.3390242"
       y="-0.17798996"
       x="-0.16951212"><feGaussianBlur
         stdDeviation="17.444351"
         id="feGaussianBlur5601" /></filter><filter
       id="filter4779"
       height="1.2480592"
       width="1.2362439"
       y="-0.12402958"
       x="-0.11812193"><feGaussianBlur
         stdDeviation="12.155829"
         id="feGaussianBlur5604" /></filter><radialGradient
       id="radialGradient4602"
       xlink:href="#linearGradient3800"
       gradientUnits="userSpaceOnUse"
       cy="119.385"
       cx="383.15201"
       r="11.6067" /><filter
       id="filter4636"
       x="-0.020786153"
       y="-0.020786153"
       width="1.0415723"
       height="1.0415723"><feGaussianBlur
         stdDeviation="0.20104886"
         id="feGaussianBlur5608" /></filter><filter
       id="filter4640"
       x="-0.012046443"
       y="-0.012046443"
       width="1.0240929"
       height="1.0240929"><feGaussianBlur
         stdDeviation="0.11651621"
         id="feGaussianBlur5611" /></filter><filter
       id="filter10578"
       height="1.4811928"
       width="1.7492412"
       y="-0.2405964"
       x="-0.37462058"><feGaussianBlur
         stdDeviation="2.7377865"
         id="feGaussianBlur5614" /></filter><radialGradient
       id="radialGradient2632"
       xlink:href="#linearGradient7995"
       gradientUnits="userSpaceOnUse"
       cy="176.998"
       cx="291.29099"
       gradientTransform="matrix(0.9676712,0.01034974,-0.01036928,0.9694982,11.252454,2.3839761)"
       r="136.812" /><radialGradient
       id="radialGradient2636"
       xlink:href="#linearGradient7995"
       gradientUnits="userSpaceOnUse"
       cy="176.998"
       cx="291.29099"
       gradientTransform="matrix(0.9676712,0.01034974,-0.01036928,0.9694982,11.252454,2.3839759)"
       r="136.812" /><filter
       id="filter3602"
       height="1.2656369"
       width="1.2720654"
       y="-0.13281844"
       x="-0.13603272"><feGaussianBlur
         stdDeviation="6.9717137"
         id="feGaussianBlur5619" /></filter><filter
       id="filter3606"
       height="1.2675967"
       width="1.2850147"
       y="-0.13379833"
       x="-0.14250737"><feGaussianBlur
         stdDeviation="7.0139312"
         id="feGaussianBlur5622" /></filter></defs><style
     type="text/css"
     id="style2961">
	.st0{fill:#FFFFFF;}
	.st1{fill:#69B53F;}
	.st2{fill:#F8F8F8;}
</style><style
     type="text/css"
     id="style4109">
	.st0{fill:#FFFFFF;}
	.st1{fill:#69B53F;}
	.st2{fill:#F8F8F8;}
</style><g
     inkscape:groupmode="layer"
     id="layer2"
     inkscape:label="Layer 2"
     style="display:inline"><g
       transform="matrix(0.86702805,0,0,0.86702805,-11.307938,101.02321)"
       id="g5815"><path
         d="m 547.292,775.884 c 0,97.9514 -72.2731,177.357 -161.426,177.357 -89.1534,0 -161.426,-79.4053 -161.426,-177.357 0,-97.9514 72.2731,-177.357 161.426,-177.357 89.1534,0 161.426,79.4053 161.426,177.357 z"
         fill-rule="evenodd"
         transform="matrix(0.7004643,0,0,0.638694,20.99835,-318.54803)"
         fill="#244762"
         id="path5631"
         style="display:inline" /></g></g><g
     inkscape:groupmode="layer"
     id="layer1"
     inkscape:label="Layer 1"><g
       id="g2916"
       style="display:inline"
       class="UnoptimicedTransforms"><path
         d="m 180.572,200.217 c -0.067,-0.085 -0.172,-0.132 -0.281,-0.125 -0.087,0.011 -0.165,0.056 -0.219,0.125 -0.011,0.01 -0.021,0.02 -0.031,0.031 -0.74697,1.19405 -1.47899,2.38549 -2.19587,3.57393 -0.009,0.0143 -0.0173,0.0286 -0.0259,0.0429 -11.67772,19.36791 -19.33248,37.93978 -22.12225,54.10216 -2.962,17.166 -0.436,31.651 8.719,41.469 10.058,10.786 27.201,13.749 48.156,10.187 20.955,-3.561 45.756,-13.644 71.25,-29.031 0.086,-0.048 0.138,-0.122 0.156,-0.219 0.018,-0.096 10e-4,-0.205 -0.062,-0.281 -0.018,-0.024 -0.039,-0.045 -0.063,-0.062 -0.547,-0.347 -0.788,-0.765 -1.406,-1.219 -0.105,-0.064 -0.238,-0.064 -0.344,0 -24.407,14.469 -48.622,24.335 -69.093,28.031 -20.471,3.696 -37.156,1.217 -46.625,-8.937 -8.532,-9.149 -11.128,-22.386 -8.438,-38.532 2.61404,-15.69006 10.22259,-34.09219 22.16676,-54.03826 0.005,-0.009 0.0103,-0.0172 0.0155,-0.0259 0.34204,-0.57104 0.68763,-1.14335 1.03676,-1.71689 0.043,-0.076 0.054,-0.166 0.031,-0.25 m 205.5,-155.656 c -23.601,0.4025 -44.978,9.8682 -65.906,19.9687 1.315,0.3555 2.611,0.6924 3.906,1.0938 20.637,-10.2998 40.105,-16.5351 56.5,-18 16.607,-1.4839 30.89,0.9722 38.531,10.5 12.197,15.2073 10.85,40.0107 -2.656,70.1247 -13.506,30.115 -39.14,65.487 -75.312,101.625 -5.599,5.594 -11.699,10.566 -17.594,15.469 -0.011,0.01 -0.022,0.02 -0.031,0.031 -0.111,0.125 -0.111,0.313 0,0.438 0.417,0.424 0.842,0.872 1.218,1.312 0.01,0.011 0.021,0.022 0.032,0.032 0.093,0.084 0.226,0.108 0.343,0.062 0.035,-0.015 0.067,-0.036 0.094,-0.062 5.893,-4.915 11.914,-9.896 17.563,-15.5 35.776,-35.498 62.029,-70.966 76.031,-101.688 14.002,-30.722 15.78,-56.7854 2.469,-73.375 -7.033,-8.7646 -18.977,-11.9198 -32.875,-12.0312 -0.767,-0.0062 -1.55,-0.013 -2.313,0 z"
         fill-rule="evenodd"
         fill="#5f5f5f"
         id="path5685"
         style="display:inline;stroke:#5f5f5f;stroke-width:0;stroke-linecap:butt;stroke-dasharray:none;stroke-opacity:1"
         sodipodi:nodetypes="ccccsscccccccccscssscccccscccccccccccscsc"
         transform="matrix(0.86702805,0,0,0.86702805,-11.307938,101.02321)" /><path
         d="m 313.64637,129.28139 c -28.71857,-0.25161 -53.44101,13.14388 -77.27387,26.85082 -0.0954,0.061 -0.13179,0.16248 -0.13526,0.27094 1.46528,-0.0741 2.93402,-0.12667 4.41577,-0.13551 21.2526,-12.74072 41.55492,-20.93318 58.6059,-23.7349 17.19837,-2.82581 32.06963,0.31361 39.20614,8.04715 5.82296,6.31032 8.37722,15.19614 7.96539,25.90246 -0.41097,10.70633 -3.79238,23.22309 -9.80782,36.71318 -12.03089,26.98018 -34.6161,57.87586 -64.91873,86.13403 -5.6695,5.28627 -11.38928,10.28729 -17.15068,15.00999 -0.0789,0.0607 -0.13092,0.1448 -0.13613,0.24451 -0.005,0.0988 0.0364,0.20201 0.10838,0.27051 0.36849,0.36328 0.75692,0.71703 1.08379,1.08378 0.11531,0.13699 0.31733,0.1604 0.46126,0.0546 5.76227,-4.73918 11.48205,-9.77835 17.15068,-15.06462 31.10983,-29.01075 53.86412,-60.22723 65.89413,-87.54295 6.01544,-13.65829 9.34396,-26.33173 9.67257,-37.28238 0.3286,-10.95074 -2.34792,-20.18788 -8.37203,-26.87787 -4.57964,-5.0859 -13.30628,-9.82716 -26.76949,-9.94377 z M 143.43749,247.9021 c 0.10491,-1.57799 0.25578,-3.13171 0.43352,-4.68802 -16.30186,22.60428 -27.42497,43.61324 -32.18842,61.47835 -4.77732,17.91974 -3.16292,32.72078 6.04232,42.59276 8.33301,8.93559 23.00225,11.95978 41.10233,9.3743 18.10095,-2.58547 39.67781,-10.78756 61.91187,-24.49354 0.10665,-0.0642 0.16821,-0.1734 0.16214,-0.29826 -0.005,-0.12485 -0.0772,-0.24363 -0.18988,-0.29739 -0.59131,-0.31559 -1.14534,-0.49334 -1.70631,-0.84015 -22.33378,13.3453 -39.0154,19.39629 -60.58359,23.70802 -17.42726,2.52652 -31.29104,-0.40924 -39.07088,-8.75178 -8.56537,-9.1853 -9.89799,-23.36814 -5.25593,-40.64194 4.51722,-16.81341 14.71694,-36.49755 29.34283,-57.14235 z"
         fill-rule="evenodd"
         fill="#5f5f5f"
         id="path5689"
         style="display:inline;stroke:#5f5f5f;stroke-width:0;stroke-linecap:butt;stroke-dasharray:none;stroke-opacity:1" /></g><g
       id="g3018"><path
         d="m 159.99253,142.80165 c -1.14275,-0.0162 -2.27682,-0.002 -3.41349,0.0271 -11.44911,0.16058 -20.34221,3.1252 -26.63424,9.88958 -6.10387,6.56237 -8.35034,15.69156 -7.96625,26.57979 0.38496,10.88857 3.80885,23.52897 9.94394,37.17426 12.27105,27.28884 35.33833,58.54607 66.35453,87.54209 31.01619,28.99688 63.09016,49.45528 90.63217,59.55442 13.77101,5.04957 26.42615,7.51453 37.22759,7.15298 10.80143,-0.36242 20.19221,-3.55395 26.60735,-9.80869 8.16047,-7.95585 10.26735,-20.74711 7.69488,-36.33367 -2.57247,-15.58657 -10.25261,-33.97016 -22.51585,-53.21385 -0.0139,-0.0217 -0.0321,-0.0408 -0.0546,-0.0538 -0.008,-0.0104 -0.0165,-0.0199 -0.0269,-0.0277 -0.17254,1.00488 -0.33901,1.98723 -0.5419,2.98084 11.12831,18.06453 18.44949,35.04961 21.13381,49.52898 2.70513,14.58688 0.72224,26.62036 -6.80097,34.708 -5.89232,6.33537 -14.56953,9.52517 -25.22444,9.86244 -10.65578,0.33814 -23.30312,-2.1745 -37.0932,-7.26136 -27.57929,-10.17457 -59.76684,-30.60435 -90.00791,-58.8764 -30.24107,-28.27205 -52.87397,-59.08276 -65.05398,-85.91728 -6.09088,-13.41726 -9.5772,-25.84871 -10.0792,-36.46937 -0.50288,-10.62031 1.95081,-19.41857 7.72175,-25.63152 7.25269,-7.80897 18.50758,-10.12428 32.64881,-9.23922 13.89499,0.86963 30.50898,6.13145 48.82495,15.33556 0.89564,-0.26601 1.80255,-0.49074 2.70946,-0.7316 -21.37745,-11.23642 -39.10123,-16.53032 -56.08631,-16.77153 z"
         fill-rule="evenodd"
         fill="#5f5f5f"
         id="path5715"
         style="display:inline;stroke:#5f5f5f;stroke-width:0;stroke-linecap:butt;stroke-dasharray:none;stroke-opacity:1" /><path
         d="m 170.39686,129.09177 c -11.67713,0.0544 -20.69162,3.03468 -27.06774,9.88949 -6.09348,6.55162 -8.7752,15.69789 -8.42578,26.63407 0.34854,10.93608 4.16,23.64966 10.24133,37.36344 12.16354,27.42757 35.12071,58.8426 66.13777,87.84122 31.01793,28.99688 63.56876,49.68764 91.4177,59.87869 13.92447,5.09552 26.67412,7.56308 37.47209,7.1261 10.7971,-0.43698 20.51301,-3.79932 26.60649,-10.35058 9.27373,-9.96909 10.18584,-25.38572 5.31054,-44.00167 -4.87529,-18.61596 -16.41544,-40.44166 -33.81409,-63.23843 -0.008,-0.01 -0.0173,-0.0182 -0.0269,-0.0269 0.20722,1.42193 0.36936,2.8664 0.51502,4.3074 15.75997,21.38785 26.57701,41.93988 31.32139,59.4998 4.79379,17.74633 3.38921,32.42425 -5.3383,41.80722 -5.87671,6.31804 -14.47763,9.48702 -25.03543,9.80869 -10.5578,0.3208 -23.06902,-2.21612 -36.74031,-7.31598 -27.34087,-10.19885 -59.74604,-30.65551 -90.00792,-58.90329 -31.21648,-29.13907 -53.71846,-60.18128 -65.86725,-87.08256 -6.0744,-13.45107 -9.43587,-25.85634 -9.80783,-36.46937 -0.37195,-10.61294 2.25861,-19.43807 8.18215,-25.71275 7.87261,-8.33977 21.70605,-10.64771 38.90788,-7.64069 17.00416,2.97243 37.28134,11.16741 58.25388,23.78908 1.41499,0.0197 2.82565,0.0561 4.22676,0.13543 -29.15642,-18.28406 -55.61464,-27.43545 -76.46147,-27.33843 z"
         fill-rule="evenodd"
         fill="#5f5f5f"
         id="path5721"
         style="display:inline;stroke:#5f5f5f;stroke-width:0;stroke-linecap:butt;stroke-dasharray:none;stroke-opacity:1" /></g></g></svg>
