<?xml version="1.0" encoding="UTF-8" standalone="no"?>
<!-- Created with Inkscape (http://www.inkscape.org/) -->

<svg
   version="1.1"
   id="svg62"
   width="500"
   height="500"
   viewBox="0 0 500.00001 500.00001"
   sodipodi:docname="system76-pride.svg"
   inkscape:version="1.2.2 (b0a8486541, 2022-12-01)"
   xml:space="preserve"
   inkscape:export-filename="system76-pride1024.png"
   inkscape:export-xdpi="196.608"
   inkscape:export-ydpi="196.608"
   xmlns:inkscape="http://www.inkscape.org/namespaces/inkscape"
   xmlns:sodipodi="http://sodipodi.sourceforge.net/DTD/sodipodi-0.dtd"
   xmlns="http://www.w3.org/2000/svg"
   xmlns:svg="http://www.w3.org/2000/svg"><defs
     id="defs66"><style
       id="style2">.cls-1{fill:#585048;}.cls-2{fill:#fff;}.cls-3{fill:#faa41a;}</style></defs><sodipodi:namedview
     id="namedview64"
     pagecolor="#505050"
     bordercolor="#ffffff"
     borderopacity="1"
     inkscape:showpageshadow="0"
     inkscape:pageopacity="0"
     inkscape:pagecheckerboard="1"
     inkscape:deskcolor="#505050"
     showgrid="false"
     inkscape:zoom="1"
     inkscape:cx="93.5"
     inkscape:cy="234"
     inkscape:window-width="1920"
     inkscape:window-height="1011"
     inkscape:window-x="26"
     inkscape:window-y="23"
     inkscape:window-maximized="0"
     inkscape:current-layer="layer2" /><g
     inkscape:groupmode="layer"
     inkscape:label="Image"
     id="g68" /><g
     inkscape:groupmode="layer"
     id="layer2"
     inkscape:label="Layer 1"><g
       id="g3224"
       transform="scale(49.997609)"><rect
         style="fill:#e27f94;fill-opacity:1;stroke:#000000;stroke-width:0;stroke-dasharray:none;stroke-opacity:1"
         id="rect2618"
         width="9.999999"
         height="1.6666657"
         x="0.00047862483"
         y="5e-07" /><rect
         style="fill:#fcef9e;fill-opacity:1;stroke:#000000;stroke-width:0;stroke-dasharray:none;stroke-opacity:1"
         id="rect2618-6"
         width="9.999999"
         height="1.6666657"
         x="5e-07"
         y="3.3333337" /><rect
         style="fill:#8dcae7;fill-opacity:1;stroke:#000000;stroke-width:0;stroke-dasharray:none;stroke-opacity:1"
         id="rect2618-7"
         width="9.999999"
         height="1.6666657"
         x="5e-07"
         y="6.666667" /><rect
         style="fill:#f3b382;fill-opacity:1;stroke:#000000;stroke-width:0;stroke-dasharray:none;stroke-opacity:1"
         id="rect2618-3"
         width="9.999999"
         height="1.6666657"
         x="5e-07"
         y="1.6666665" /><rect
         style="fill:#b8eb9c;fill-opacity:1;stroke:#000000;stroke-width:0;stroke-dasharray:none;stroke-opacity:1"
         id="rect2618-3-5"
         width="9.999999"
         height="1.6666657"
         x="5e-07"
         y="5.0000005" /><rect
         style="fill:#b197cd;fill-opacity:1;stroke:#000000;stroke-width:0;stroke-dasharray:none;stroke-opacity:1"
         id="rect2618-3-3"
         width="9.999999"
         height="1.6666657"
         x="5e-07"
         y="8.333334" /></g><g
       id="secondary"
       style="fill:#000000"
       transform="matrix(0.37062,0,0,0.37062013,60.994535,69.751863)"><path
         class="cls-2"
         d="m 502.525,349.1 a 30.418,30.418 0 0 0 -9.1,-39.083 l -0.41,-0.3 c -4.235,-3.341 -12.571,-5.8 -19.5,-5.8 H 89.538 a 26.888,26.888 0 0 0 -26.627,26.04 l -0.024,1.1 a 26.276,26.276 0 0 0 3.968,14.206 l 75.619,127.273 a 26.367,26.367 0 0 0 22.562,12.358 28.074,28.074 0 0 0 26.983,-21.028 26.221,26.221 0 0 0 -3.168,-20.311 l -50.885,-85.7 H 427.852 L 156.864,860.259 a 501.141,501.141 0 0 0 46.711,40.153 30.389,30.389 0 0 0 5.773,-7.563 z"
         id="path10"
         style="fill:#1e1f22;fill-opacity:1" /><rect
         style="fill:#1e1f22;fill-opacity:0.5;stroke-width:23.6562"
         id="rect354"
         width="368.92078"
         height="62.368"
         x="529.13397"
         y="845.70502"
         ry="31.184" /><path
         class="cls-2"
         d="m 771.494,334.953 c -3.337,-0.559 -6.715,-1.053 -10.04,-1.465 a 29.256,29.256 0 0 0 -22.777,7.139 28.646,28.646 0 0 0 -9.643,20.878 28.992,28.992 0 0 0 25.479,29.795 c 2.47,0.308 4.934,0.667 7.327,1.07 a 166.542,166.542 0 0 1 107.178,65.578 c 25.851,35.116 36.169,77.73 29.056,120 a 157.311,157.311 0 0 1 -61.433,100.062 165.165,165.165 0 0 1 -99.754,33.08 c -4.971,0 -10,-0.222 -14.959,-0.664 -4.456,-0.394 -8.938,-0.97 -13.326,-1.716 a 162.391,162.391 0 0 1 -105.81,-66.1 156.61,156.61 0 0 1 -27.247,-67.4 c -7.23,-47.815 7.116,-108.59 38.38,-162.578 0.218,-0.4 5.337,-9.661 13.646,-24.684 37.2,-67.263 149.554,-270.414 159.223,-288.384 l 1.354,-4.086 A 493.769,493.769 0 0 0 737.654,64.611 l -4,4.834 -169.162,309.068 c -10.8,21.628 -22.183,45.224 -31.436,69.617 -26.99,71.121 -25.536,139.758 4.206,198.492 a 231.592,231.592 0 0 0 17.667,29.286 219.986,219.986 0 0 0 144.017,90.222 c 6.009,1.015 12.081,1.795 18.054,2.324 6.573,0.58 13.271,0.875 19.909,0.875 h 0.022 a 223.743,223.743 0 0 0 128.1,-39.923 c 48.622,-33.721 80.748,-84.08 90.461,-141.795 9.713,-57.715 -4.165,-115.821 -39.076,-163.6 -34.749,-47.553 -86.216,-79.18 -144.922,-89.058 z"
         id="path12"
         style="fill:#1e1f22;fill-opacity:1" /></g></g></svg>
