<?xml version="1.0" encoding="UTF-8" standalone="no"?>
<!-- Created with Inkscape (http://www.inkscape.org/) -->

<svg
   width="500mm"
   height="500mm"
   viewBox="0 0 500 500"
   version="1.1"
   id="svg5"
   xml:space="preserve"
   inkscape:export-filename="endeavour.svg"
   inkscape:export-xdpi="96"
   inkscape:export-ydpi="96"
   sodipodi:docname="endeavour.svg"
   inkscape:version="1.2.2 (b0a8486541, 2022-12-01)"
   xmlns:inkscape="http://www.inkscape.org/namespaces/inkscape"
   xmlns:sodipodi="http://sodipodi.sourceforge.net/DTD/sodipodi-0.dtd"
   xmlns="http://www.w3.org/2000/svg"
   xmlns:svg="http://www.w3.org/2000/svg"><sodipodi:namedview
     id="namedview7"
     pagecolor="#505050"
     bordercolor="#ffffff"
     borderopacity="1"
     inkscape:showpageshadow="0"
     inkscape:pageopacity="0"
     inkscape:pagecheckerboard="1"
     inkscape:deskcolor="#505050"
     inkscape:document-units="mm"
     showgrid="false"
     inkscape:zoom="0.41380833"
     inkscape:cx="1043.9616"
     inkscape:cy="944.88189"
     inkscape:window-width="1920"
     inkscape:window-height="1011"
     inkscape:window-x="26"
     inkscape:window-y="23"
     inkscape:window-maximized="0"
     inkscape:current-layer="layer1" /><defs
     id="defs2" /><g
     inkscape:label="Layer 1"
     inkscape:groupmode="layer"
     id="layer1"><g
       transform="matrix(14.67571,0,0,14.980503,-5077.2206,-269.45469)"
       id="g726"><g
         transform="matrix(0.678,0,0,0.678,452,49.2)"
         id="g720"
         style="display:inline"><path
           d="m -127,-42.3 c 4.57,6.45 23.8,31.4 10.7,36.6 -6.12,2.81 -34,-1.65 -33.6,-0.921 -2,3.28 -3.59,5.92 -3.59,5.92 0,0 21.5,0.967 38.1,-1.27 23.7,-3.18 -4.88,-33.5 -11.6,-40.3 z"
           style="display:inline;fill:#1a1a1a;stroke-width:0.585"
           inkscape:connector-curvature="0"
           id="path714" /><path
           d="m -127,-42.3 c -1.52,0.209 -29.4,34.5 -29.4,34.5 0,0 2.01,0.57 6.58,1.23 1.48,-1.15 22.3,-36.2 22.9,-35.7 -0.0107,-0.0141 -0.028,-0.0193 -0.0522,-0.016 z"
           style="display:inline;fill:#333333;stroke-width:0.585"
           inkscape:connector-curvature="0"
           id="path716" /><path
           d="m -127,-42.3 c -0.96,-0.156 -22.9,35.7 -22.9,35.7 0,0 19.9,2.1 28.1,1.96 23.1,-0.39 0.176,-30.6 -5.16,-37.7 -0.007,-0.007 -0.0151,-0.0108 -0.0248,-0.0124 z"
           style="display:inline;fill:#000000;stroke-width:0.585"
           inkscape:connector-curvature="0"
           id="path718" /></g></g></g></svg>
