<?xml version="1.0" encoding="UTF-8" standalone="no"?>
<!-- Created with Inkscape (http://www.inkscape.org/) -->

<svg
   width="500mm"
   height="500mm"
   viewBox="0 0 500 500"
   version="1.1"
   id="svg5"
   xml:space="preserve"
   inkscape:export-filename="void.svg"
   inkscape:export-xdpi="96"
   inkscape:export-ydpi="96"
   sodipodi:docname="fedora.svg"
   inkscape:version="1.2.2 (b0a8486541, 2022-12-01)"
   xmlns:inkscape="http://www.inkscape.org/namespaces/inkscape"
   xmlns:sodipodi="http://sodipodi.sourceforge.net/DTD/sodipodi-0.dtd"
   xmlns="http://www.w3.org/2000/svg"
   xmlns:svg="http://www.w3.org/2000/svg"><sodipodi:namedview
     id="namedview7"
     pagecolor="#505050"
     bordercolor="#ffffff"
     borderopacity="1"
     inkscape:showpageshadow="0"
     inkscape:pageopacity="0"
     inkscape:pagecheckerboard="1"
     inkscape:deskcolor="#505050"
     inkscape:document-units="mm"
     showgrid="false"
     inkscape:zoom="0.41380833"
     inkscape:cx="895.34205"
     inkscape:cy="944.88189"
     inkscape:window-width="960"
     inkscape:window-height="1011"
     inkscape:window-x="26"
     inkscape:window-y="23"
     inkscape:window-maximized="0"
     inkscape:current-layer="svg5" /><defs
     id="defs2" /><style
     type="text/css"
     id="style2961">
	.st0{fill:#FFFFFF;}
	.st1{fill:#69B53F;}
	.st2{fill:#F8F8F8;}
</style><style
     type="text/css"
     id="style4109">
	.st0{fill:#FFFFFF;}
	.st1{fill:#69B53F;}
	.st2{fill:#F8F8F8;}
</style><g
     id="g4826"
     transform="matrix(3.6906495,0,0,3.6906495,0,4.688)"><path
       fill="#ffffff"
       d="m 81.54629,27.337877 c -10.56799,0 -19.90324,7.801562 -21.19561,18.038694 -0.0868,0.856948 -0.11179,1.474652 -0.11679,2.25154 l 0.0124,41.854812 c 0,8.0289 -6.12782,13.493227 -13.78418,13.493227 -7.66691,0 -13.8436,-6.008637 -13.8436,-13.506147 0.12574,-8.230728 6.84267,-13.450867 14.67766,-13.678237 h 0.0419 l 7.95404,-0.07183 V 64.668931 l -7.95404,0.05891 c -14.2605,-0.12574 -25.57978,10.82588 -25.99324,24.748872 0,13.539207 11.34236,24.576797 25.11319,24.576797 12.98996,0 23.80035,-9.95243 24.9809,-22.406387 0.1702,-4.239107 0.0873,-9.833503 0.0873,-9.833503 0.0238,-2.303511 -0.0365,-1.476328 -0.0124,-6.050278 l 9.86659,-0.07183 c 7.6344,0.05295 7.54863,-11.225802 -0.0879,-11.070643 l -9.7808,0.07131 c 0,-5.677739 0.0911,-11.320375 0,-17.006713 0.007,-4.918056 4.7563,-9.264033 10.02574,-9.264033 5.27077,0 10.84585,2.580457 10.84585,9.264033 0,0.954889 -0.0195,1.510723 -0.0734,1.864484 -0.58829,3.099594 1.57066,6.061962 4.75165,6.509166 3.18098,0.442039 6.10201,-1.811142 6.41718,-4.94647 0.18261,-1.239441 0.1757,-2.332945 0.1757,-3.426148 0,-11.785592 -10.74013,-20.32899 -22.11545,-20.32899 z"
       id="path4824"
       style="fill:#000000" /></g></svg>
