<?xml version="1.0" encoding="UTF-8" standalone="no"?>
<svg
   viewBox="0 0 1008.101 1008.101"
   version="1.1"
   id="svg17"
   sodipodi:docname="system76.svg"
   inkscape:version="1.2.2 (b0a8486541, 2022-12-01)"
   xmlns:inkscape="http://www.inkscape.org/namespaces/inkscape"
   xmlns:sodipodi="http://sodipodi.sourceforge.net/DTD/sodipodi-0.dtd"
   xmlns="http://www.w3.org/2000/svg"
   xmlns:svg="http://www.w3.org/2000/svg">
  <sodipodi:namedview
     id="namedview19"
     pagecolor="#505050"
     bordercolor="#ffffff"
     borderopacity="1"
     inkscape:showpageshadow="0"
     inkscape:pageopacity="0"
     inkscape:pagecheckerboard="1"
     inkscape:deskcolor="#505050"
     showgrid="false"
     inkscape:zoom="0.77571592"
     inkscape:cx="511.14073"
     inkscape:cy="564.6397"
     inkscape:window-width="1920"
     inkscape:window-height="1011"
     inkscape:window-x="26"
     inkscape:window-y="23"
     inkscape:window-maximized="0"
     inkscape:current-layer="secondary" />
  <defs
     id="defs4">
    <style
       id="style2">.cls-1{fill:#585048;}.cls-2{fill:#fff;}.cls-3{fill:#faa41a;}</style>
  </defs>
  <g
     id="secondary"
     style="fill:#000000">
    <path
       class="cls-2"
       d="M502.525,349.1a30.418,30.418,0,0,0-9.1-39.083l-.41-.3c-4.235-3.341-12.571-5.8-19.5-5.8H89.538a26.888,26.888,0,0,0-26.627,26.04l-.024,1.1a26.276,26.276,0,0,0,3.968,14.206l75.619,127.273a26.367,26.367,0,0,0,22.562,12.358,28.074,28.074,0,0,0,26.983-21.028,26.221,26.221,0,0,0-3.168-20.311l-50.885-85.7H427.852L156.864,860.259a501.141,501.141,0,0,0,46.711,40.153,30.389,30.389,0,0,0,5.773-7.563Z"
       id="path10"
       style="fill:#000000" />
    <rect
       style="fill:#000000;fill-opacity:0.5;stroke-width:23.6562"
       id="rect354"
       width="368.92078"
       height="62.368"
       x="529.13397"
       y="845.70502"
       ry="31.184" />
    <path
       class="cls-2"
       d="M771.494,334.953c-3.337-.559-6.715-1.053-10.04-1.465a29.256,29.256,0,0,0-22.777,7.139,28.646,28.646,0,0,0-9.643,20.878A28.992,28.992,0,0,0,754.513,391.3c2.47.308,4.934.667,7.327,1.07a166.542,166.542,0,0,1,107.178,65.578c25.851,35.116,36.169,77.73,29.056,120A157.311,157.311,0,0,1,836.641,678.01a165.165,165.165,0,0,1-99.754,33.08c-4.971,0-10-.222-14.959-.664-4.456-.394-8.938-.97-13.326-1.716a162.391,162.391,0,0,1-105.81-66.1,156.61,156.61,0,0,1-27.247-67.4c-7.23-47.815,7.116-108.59,38.38-162.578.218-.4,5.337-9.661,13.646-24.684,37.2-67.263,149.554-270.414,159.223-288.384l1.354-4.086a493.769,493.769,0,0,0-50.494-30.867l-4,4.834L564.492,378.513c-10.8,21.628-22.183,45.224-31.436,69.617-26.99,71.121-25.536,139.758,4.206,198.492a231.592,231.592,0,0,0,17.667,29.286A219.986,219.986,0,0,0,698.946,766.13c6.009,1.015,12.081,1.795,18.054,2.324,6.573.58,13.271.875,19.909.875h.022a223.743,223.743,0,0,0,128.1-39.923c48.622-33.721,80.748-84.08,90.461-141.795s-4.165-115.821-39.076-163.6C881.667,376.458,830.2,344.831,771.494,334.953Z"
       id="path12"
       style="fill:#000000" />
  </g>
</svg>
