<?xml version="1.0" encoding="UTF-8" standalone="no"?>
<!-- Created with Inkscape (http://www.inkscape.org/) -->

<svg
   width="500mm"
   height="500mm"
   viewBox="0 0 500 500"
   version="1.1"
   id="svg5"
   xml:space="preserve"
   inkscape:export-filename="popos2.svg"
   inkscape:export-xdpi="96"
   inkscape:export-ydpi="96"
   sodipodi:docname="void.svg"
   inkscape:version="1.2.2 (b0a8486541, 2022-12-01)"
   xmlns:inkscape="http://www.inkscape.org/namespaces/inkscape"
   xmlns:sodipodi="http://sodipodi.sourceforge.net/DTD/sodipodi-0.dtd"
   xmlns="http://www.w3.org/2000/svg"
   xmlns:svg="http://www.w3.org/2000/svg"><sodipodi:namedview
     id="namedview7"
     pagecolor="#505050"
     bordercolor="#ffffff"
     borderopacity="1"
     inkscape:showpageshadow="0"
     inkscape:pageopacity="0"
     inkscape:pagecheckerboard="1"
     inkscape:deskcolor="#505050"
     inkscape:document-units="mm"
     showgrid="false"
     inkscape:zoom="0.41380833"
     inkscape:cx="895.34205"
     inkscape:cy="944.8819"
     inkscape:window-width="1920"
     inkscape:window-height="1011"
     inkscape:window-x="26"
     inkscape:window-y="23"
     inkscape:window-maximized="0"
     inkscape:current-layer="svg5" /><defs
     id="defs2" /><style
     type="text/css"
     id="style2961">
	.st0{fill:#FFFFFF;}
	.st1{fill:#69B53F;}
	.st2{fill:#F8F8F8;}
</style><style
     type="text/css"
     id="style4109">
	.st0{fill:#FFFFFF;}
	.st1{fill:#69B53F;}
	.st2{fill:#F8F8F8;}
</style><g
     id="g4609"
     transform="matrix(1.9586686,0,0,1.9586686,-0.67665592,43.8795)"><path
       d="M 128.01682,0 C 105.98494,0.04678314 84.523372,7.0072685 66.657757,19.900168 l 23.902685,23.902684 c 11.277448,-6.898594 24.236288,-10.559734 37.456378,-10.582214 39.77241,-7.9e-5 72.01434,32.241846 72.01426,72.014262 -0.0318,13.21538 -3.69956,26.16719 -10.60151,37.43708 l 23.94799,23.94799 c 12.8888,-17.87595 19.8404,-39.34715 19.87417,-61.38507 C 233.25173,47.115274 186.13644,0 128.01682,0 Z"
       fill="#abc2ab"
       id="path4595"
       style="fill:#333333" /><path
       d="m 189.37588,190.56963 -23.90269,-23.90268 c -11.27745,6.89859 -24.23629,10.55974 -37.45637,10.58221 -39.772417,8e-5 -72.014343,-32.24185 -72.014264,-72.01426 0.03183,-13.215382 3.699547,-26.167196 10.60151,-37.437081 L 42.656067,43.849832 C 29.76725,61.725769 22.815686,83.196977 22.781918,105.2349 c 0,58.11962 47.115274,105.2349 105.234902,105.2349 22.03188,-0.0468 43.49344,-7.00726 61.35906,-19.90017 z"
       fill="#478061"
       id="path4597"
       style="fill:#000000" /><circle
       fill="#abc2ab"
       cx="128"
       cy="105.2349"
       r="33.503357"
       id="circle4599"
       style="fill:#333333" /></g></svg>
